<svg xmlns="http://www.w3.org/2000/svg" xmlns:xlink="http://www.w3.org/1999/xlink" width="377" height="281" viewBox="0 0 377 281">
  <defs>
    <clipPath id="clip-path">
      <rect id="Rectangle_60294" data-name="Rectangle 60294" width="377" height="281" transform="translate(31 170)" fill="none"/>
    </clipPath>
  </defs>
  <g id="BG1" transform="translate(-31 -170)" opacity="0.06">
    <path id="Path_108024" data-name="Path 108024" d="M553.848,491.432c-2.648-8.277-2.778-17.327.958-25.328v-.011a11.973,11.973,0,0,0,4.1,2.885c1.893.947,3.561,1.566,5.686,1.082,3.623-.828,9.314-3.11,8.018-7.844a.271.271,0,0,0-.344-.175c-4.581,2.113-9.59-3.082-13.963-1.037,3.984-4.209,9.568-6.672,14.836-9.275a5.767,5.767,0,0,0,5.3.535,10.086,10.086,0,0,0,5.6,6.176c2.519.964,6.536.693,8.12-1.826a4.241,4.241,0,0,0,3.246-7.449,4.878,4.878,0,0,0,3.443-5.116,4.707,4.707,0,0,0-4.136-4.029,5.485,5.485,0,0,0,1.065-1.516,5.156,5.156,0,0,0-.907-5.832,4.5,4.5,0,0,0-5.669-.5c-.107.079-.22.163-.332.259a5.364,5.364,0,0,0-4.158-5.55,3.819,3.819,0,0,0-3.533,1.251,2.195,2.195,0,0,0-.733-.113c-.254-.017-.507-.017-.755-.017h-.321a.279.279,0,0,0-.073.017,4.046,4.046,0,0,0-2.84,1.527c-.778.975-1.431,2.648-.738,3.826-3.009,2.293-3.46,6.756-1.578,10.03a.488.488,0,0,0-.09.006c-1.026.31-1.5,1.8-1.831,2.71a5.7,5.7,0,0,0-.3,4,2.206,2.206,0,0,0,.124.259,43.309,43.309,0,0,0-8.176,4.051c1.211-2.406-.107-6.007-1.741-7.962-3.043-3.634-7.979-3.927-11.444-6.919a.212.212,0,0,0-.282.316c.146.13.293.259.44.378a.559.559,0,0,0-.423.208c.011-.135.023-.265.028-.4.028-.389-.58-.361-.608.028-.18,2.626-.513,5.291-.53,7.922a7.009,7.009,0,0,0,1.809,4.829,12.387,12.387,0,0,0,5.088,3.195c1.149.428,2.868,1.279,4.164.913a31.535,31.535,0,0,0-8.306,10.092c-3.826,7.472-4.3,17.113.485,24.269a.384.384,0,0,0,.625.045c.034.09.062.175.1.265a.308.308,0,0,0,.586-.186Zm34.733-33.668a7.05,7.05,0,0,1-4.784-.485c-2.586-1.257-4.243-3.882-5.167-6.548a.081.081,0,0,0,.017-.011,6.691,6.691,0,0,0,2.265,3.184,6.924,6.924,0,0,0,4.3,3.6c1.775.513,4.029.366,5.111-1.279a5.664,5.664,0,0,0,.665.208,6.387,6.387,0,0,1-2.406,1.324ZM587.7,446.8c.84,2.592.18,6.271-3.139,6.542-2.755.225-4.5-2.293-5.381-4.564a11.94,11.94,0,0,0,8.514-1.972Zm-2.581,6.931c3.291-.7,3.961-4.4,3.037-7.139,2.879,2.175,1.741,6.345-1.634,7.449-3.11,1.014-6.328-1.071-7.4-3.984a.439.439,0,0,0-.062-.1.313.313,0,0,0-.349-.22c-.023,0-.045.011-.068.011a5.2,5.2,0,0,0,.254-.919c.913,2.643,3.02,5.584,6.221,4.9Zm5.685-4.981c1.814.558,4.181,1.465,4.17,3.629-.017,3.172-3.724,1.657-5.387.789A5.753,5.753,0,0,0,590.8,448.749Zm5.043,3.578c-.051,3.747-4.463,3.843-6.649,1.933a.553.553,0,0,0-.738.823,5.836,5.836,0,0,0,1.257.873c-1.144,1.628-3.781,1.279-5.37.552a7.1,7.1,0,0,1-2.6-2.051,6.36,6.36,0,0,0,6.069.192,5.391,5.391,0,0,0,1.392-1.042c1.826,1.059,5.342,2.451,6.21-.456s-2.389-4.294-4.694-4.8a4.89,4.89,0,0,0-.2-.614C592.813,448.236,595.872,450.208,595.844,452.327Zm-2.034-11.551c3.189.964,4.068,5.308.485,6.559a.151.151,0,0,0,.051.293c1.871.051,3.088-2.045,2.846-3.741a4.2,4.2,0,0,0-2.091-2.958,4.02,4.02,0,0,1,2.654,3.043c.372,2.333-1.324,3.6-3.2,4.423a.489.489,0,0,0-.056.039,8.3,8.3,0,0,0-4.446-1.493,4.258,4.258,0,0,0-1.273-1.144,5.742,5.742,0,0,0,1.319-3.865,6.915,6.915,0,0,0,3.708-1.15Zm-8.131,6.074a12.908,12.908,0,0,1-4.852.947,16.769,16.769,0,0,0,5.511-3.3c.9-.806,2.507-2.31,2.423-3.73a3.658,3.658,0,0,1,.22.563C589.73,443.83,587.8,445.892,585.679,446.85Zm-7.106-1.138c-.073-.7,1.206-1.476,1.657-1.9.637-.592,1.279-1.183,1.938-1.758a14.748,14.748,0,0,1,2.248-1.719,5.7,5.7,0,0,1,1.488-.637,1.737,1.737,0,0,1,1.826,2.547c-.806,1.493-2.643,2.722-4.046,3.578a17.426,17.426,0,0,1-4.722,1.938,4.486,4.486,0,0,0-.479-1.719c-.023-.051-.056-.1-.079-.146a.175.175,0,0,0,.175-.186Zm7.968-9.4a2.671,2.671,0,0,0,.209,1.674.15.15,0,0,0,.18.056,1.244,1.244,0,0,0-.068.163c0,.011-.006.028-.006.039a4.616,4.616,0,0,0-1.183-.023,15.959,15.959,0,0,0,.868-1.916Zm-1.476,2.012a6.236,6.236,0,0,0-.637.169.442.442,0,0,0,.135-.242,4.846,4.846,0,0,0-2.5-5.376c.13-1.313.265-3.054,1.516-3.781,2.508-1.459,3.167,1.595,3.184,3.15A11.833,11.833,0,0,1,585.065,438.319Zm4.113-2.671a9.818,9.818,0,0,1,1.24-1.076,3.53,3.53,0,0,1,.969-.558c.823-.378,1.364-.169,1.629.637a1.691,1.691,0,0,1,.3,1.916,5.455,5.455,0,0,1-.947,1.752,5.728,5.728,0,0,1-2.682,1.8.265.265,0,0,0-.079.045,3.818,3.818,0,0,0-.84-1.037,3.673,3.673,0,0,0-1.623-.834,11.506,11.506,0,0,1,2.034-2.654Zm-8.1,4.626c-.417.31-3.375,2.953-3.657,4.3a3.229,3.229,0,0,0-1.781-.986c-.885-2.615-1.031-5.573.9-7.8,1.127-1.3,2.868-2.31,4.6-1.617,1.781.716,1.871,3.324,1.922,4.88A14.627,14.627,0,0,0,581.081,440.274Zm-.3,1.476a16.485,16.485,0,0,1,2.068-1.459,8.323,8.323,0,0,1,2.091-.862,10.344,10.344,0,0,0-2.012,1.223,35.431,35.431,0,0,0-3.308,3,8.637,8.637,0,0,0-1.195,1.206.3.3,0,0,0-.113-.085c-.535-.237,2.282-2.874,2.468-3.026Zm13.033-8.469a3.963,3.963,0,0,1,.885,4.936,5.455,5.455,0,0,1-4.728,2.671.165.165,0,0,0-.051.011c-.023-.079-.051-.158-.079-.237h.028a5.755,5.755,0,0,0,3.46-2.727c.563-1,1.178-2.772.434-3.837-1.809-2.575-4.846.7-6.243,2.908a12.157,12.157,0,0,1,.919-2.316c1.189-1.876,3.448-2.953,5.392-1.414ZM577.244,430.1a3.716,3.716,0,0,1,2.727-1.442c.13.017.254.028.383.039s.282.028.417.034a2.887,2.887,0,0,0-.175.349,4.38,4.38,0,0,0-2.846,1.409,2.25,2.25,0,0,0-.918,2.22c-.135.068-.265.135-.389.208A4.2,4.2,0,0,1,577.244,430.1Zm-.124,2.474c-.023-1.51,1.966-2.795,3.353-3.161a3.362,3.362,0,0,0,.282,2.7c.169.31.693.062.563-.27-1.121-2.874,2.079-4.868,4.5-3.471,2.091,1.206,1.95,3.392,1.837,5.443a7.65,7.65,0,0,0-.676,1.155c.575-2.119.637-4.384-.614-5.883a2.234,2.234,0,0,0-3.043-.394c-1.335.868-1.555,2.541-1.561,4.018a5.586,5.586,0,0,0-4.637-.141Zm-.575,1.5c3.077-2.13,7.838-.146,7.105,3.967a.467.467,0,0,0,.456.558c-.147.056-.3.113-.44.175-.079-1.736-.338-3.663-1.82-4.79-1.364-1.037-3.048-.642-4.384.248-3.1,2.068-3.651,6.131-2.226,9.348a.364.364,0,0,0-.2.152C573.705,440.5,573.271,436.335,576.545,434.076Zm-2.209,9.748a.231.231,0,0,0,.039-.011c.051.079.1.158.158.237a.277.277,0,0,0,.073.068,4.889,4.889,0,0,0-1.859,2.192,4.316,4.316,0,0,0-.18.445c.208-.687.941-2.924,1.775-2.924Zm-.456,5.928a1.244,1.244,0,0,0-.434.017,4.659,4.659,0,0,1,.344-3.071c.456-.93,1.245-1.33,1.888-2.051a4.381,4.381,0,0,1,2.355,4.992.32.32,0,0,0-.27.344,5.264,5.264,0,0,1-1.4.366,5.948,5.948,0,0,1-2.248-.321.284.284,0,0,0-.242-.282Zm-.648.744a4.647,4.647,0,0,0,2.9.913,5.516,5.516,0,0,0,1.916-.344c.073.259.158.513.248.772-1.876.287-4.158.5-5.364-1.144a.939.939,0,0,1,.31-.2Zm-14.4-6.114c3.848,2.288,7.173,7.889,3,11.4,1.364-2.558,1.809-5.731-.141-8.131a18.519,18.519,0,0,0-4.5-3.37q-1.817-1.183-3.64-2.367C555.285,442.759,557.144,443.384,558.829,444.382Zm-4.457,1.724a30.042,30.042,0,0,1,2.367,3.443c1.116,1.893,1.882,4.1,3.415,5.691-2.879-.783-5.759-2.248-7.37-4.84-1.409-2.271-1.054-4.829-1.138-7.353.823,1.076,1.888,2,2.722,3.06Zm.93-.332c2.5,2.327,4.9,4.666,5.071,8.272-1.42-1.8-2.243-4.108-3.5-6.012-.468-.7-.992-1.488-1.572-2.26Zm5.511,8.79c.462-5.015-4.508-8.43-7.922-11.7,2.276,1.409,4.592,2.789,6.7,4.4,2.66,2.034,2.7,4.987,1.7,7.787a6.493,6.493,0,0,1-.479-.485Zm-9.021-12.385c.1.118.186.237.287.355q-.236-.152-.473-.287c0-.068-.011-.13-.017-.2.068.045.135.085.2.13Zm3.392,12.763a9.485,9.485,0,0,1-4.361-3.544c-1.037-1.736-.941-3.556-.812-5.5q.152-2.257.333-4.508c.411,2.023,0,4.085.248,6.125a8.6,8.6,0,0,0,1.8,4.294,14.118,14.118,0,0,0,8.137,4.677c-1.482.394-4.2-1.02-5.336-1.544Zm17.011-3.736a.22.22,0,0,0,.411.039,3.424,3.424,0,0,0,.248.248c-4.615,1.764-9.348,4.012-13.106,7.263a40.361,40.361,0,0,1,12.442-7.556Zm-1.826,11.94a15.047,15.047,0,0,1,1.589-.366c.828.349.034,2.164-.208,2.626-.952,1.786-2.846,2.677-4.671,3.3a11.985,11.985,0,0,1-4.159.93,11.286,11.286,0,0,1-4.632-1.752,12.132,12.132,0,0,1-3.167-2.417c.141-.27.282-.535.428-.789a9.666,9.666,0,0,0,7.646,4.367,10,10,0,0,0,8.965-5.263c.248-.439-.22-.811-.625-.738a8.549,8.549,0,0,1-1.487.124,3.176,3.176,0,0,0,.327-.023Zm-12.616-1.527c3.093-1.606,6.317.321,9.4,1.161a11.57,11.57,0,0,0,1.521.316c-3.685-.366-7.922-1.989-11.292-1.059.118-.147.248-.282.372-.423Zm5.781,1.634a36.166,36.166,0,0,0,5.387.964,18.751,18.751,0,0,1-6.384-.383,25.008,25.008,0,0,0-4.271-.924,14.573,14.573,0,0,1,5.274.344Zm-2.536.772a30.781,30.781,0,0,0,3.7.823,12.674,12.674,0,0,0,5.128-.135,15.078,15.078,0,0,1-12.915-1.347,9.233,9.233,0,0,1,4.085.665Zm8.232,1.781a8.354,8.354,0,0,1-6.012,2.107,9.042,9.042,0,0,1-6.863-4.175,15.04,15.04,0,0,0,12.87,2.068Zm-14.667-.958a5.559,5.559,0,0,1,.479-.485c-.118.208-.237.423-.349.637-.045-.051-.09-.1-.13-.152Zm-1.347,2.215c.321-.614.676-1.211,1.048-1.8l.152.271c-.09.186-.186.366-.271.558a34.344,34.344,0,0,0-1.589,23.424A25.566,25.566,0,0,1,553.217,467.062Z" transform="translate(-239.682 -186.321)" fill="#1d78ec"/>
    <path id="Path_108027" data-name="Path 108027" d="M45.819,13.435C43.177,1.777,27.878-4.134,18.322,3.281a14.825,14.825,0,0,0-5.449,9.235,95.709,95.709,0,0,0-1.256,12.509,2.147,2.147,0,0,0-1.876.361,1.686,1.686,0,0,0-.682,1.741,1.965,1.965,0,0,0-1.921,1.234,2.4,2.4,0,0,0-.208,1.121,2.177,2.177,0,0,0-2.755,1.471,2.851,2.851,0,0,0-.141,1.279,2.218,2.218,0,0,0-2.367,1.657,2.764,2.764,0,0,0-.118.789.241.241,0,0,0-.276.068,5.756,5.756,0,0,0,.18,7.427,6.039,6.039,0,0,0,7.765.8.454.454,0,0,0,.192-.5,1.2,1.2,0,0,1,.141.017,2.609,2.609,0,0,0,2.924-2.158,2.374,2.374,0,0,0,2.919-1.989A.375.375,0,0,0,15.341,38a2.455,2.455,0,0,0,2.288-1.544,2.118,2.118,0,0,0,2.592-.276,2.059,2.059,0,0,0,.654-2.243c3.353-.659,6.8-.411,10.154-1.149A21.567,21.567,0,0,0,39.7,28.852c4.666-3.64,7.466-9.506,6.125-15.428ZM12.991,15.948c.361-3.308.913-6.581,2.936-9.331C19.883,1.23,26.9-.4,33.124,1.371c.3.085.6.186.9.287-5.838-1.533-12.667,0-16.82,4.925a16.16,16.16,0,0,0-3.747,8.9c-.3,3.195.276,6.852-1.307,9.731a2.447,2.447,0,0,0-.259-.1c.462-3.043.761-6.1,1.093-9.162ZM15.5,30.142q.955.938,1.938,1.843a.315.315,0,0,0,.321.293c.394.366.789.732,1.189,1.093a.532.532,0,0,0,.135.665.017.017,0,0,1-.006.011c-2.113,3.33-7.353-4.406-8.762-6.677,2.017-.823,3.865,1.476,5.19,2.772ZM12.428,26.1a7.305,7.305,0,0,1,1.082.845,12.717,12.717,0,0,1,1.02,1.042c-.192-.169-.378-.338-.575-.5a5.3,5.3,0,0,0-1.837-1.014C12.225,26.35,12.332,26.22,12.428,26.1Zm11.732-8.4a10.724,10.724,0,0,1-3.088,5.781c-.445.423-.9.828-1.352,1.234a20.992,20.992,0,0,0,2.609-3.944,20.082,20.082,0,0,0,1.29-3.11C23.8,17.678,23.979,17.689,24.159,17.7Zm-.423-.417c.023-.079.051-.158.073-.242.147.045.3.09.451.135-.011.051-.017.1-.028.158ZM16.795,27.55a15.208,15.208,0,0,0-.958,1.189c-.073.107.09.225.18.135,1.7-1.662,3.426-3.257,5.178-4.868a10.651,10.651,0,0,0,2.868-4.282,16.736,16.736,0,0,0,.58-2.006c.631.022,1.245.017,1.8.022.744.175,1.471.349,2.153.546,1.352.389,2.744.857,4.142,1.257-2.491.366-5.032,2.107-6.92,3.392a28.719,28.719,0,0,0-7.9,7.7c-.62-.49-1.189-.918-1.527-1.257a.188.188,0,0,0-.315.056l-.017-.017a.217.217,0,0,0-.023-.073c-.135-.248-.316-.547-.53-.862.445-.293.873-.6,1.29-.93Zm17.045-4.9A1.845,1.845,0,0,0,35.6,24.44a2.033,2.033,0,0,0,1.769-1.64,2.92,2.92,0,0,0-.569-2.237.043.043,0,0,0,.028-.011.4.4,0,0,0,.051-.034A2.842,2.842,0,0,1,38.32,23c-.107,3.488-6.688,1.893-5.274-1.245.321-.1.648-.2.975-.287a2.644,2.644,0,0,0-.192,1.172Zm1.482-1.555c.332-.1.659-.208.986-.332a3.24,3.24,0,0,1,.378,1.3,1.389,1.389,0,0,1-.98,1.482c-.772.124-1.071-.811-.941-1.414a2.682,2.682,0,0,1,.558-1.037Zm-.378-.918A27.983,27.983,0,0,0,26.2,23.932a31.3,31.3,0,0,0-5.719,4.48,31.477,31.477,0,0,1,5.105-4.66c2.186-1.555,5.3-3.741,8.17-3.933.417.107.84.2,1.262.287-.028.022-.051.045-.079.068ZM17.939,31.213l-.079.1c-.169-.186-.344-.372-.518-.558C17.533,30.9,17.736,31.055,17.939,31.213Zm.5.4a10.6,10.6,0,0,1,1.33,1.262c-.113.051-.22.1-.333.158L18.288,31.77c.051-.056.1-.107.147-.163ZM7.34,36.025a5.487,5.487,0,0,1-1.662-3.251A3.272,3.272,0,0,1,7.03,30.142,8.938,8.938,0,0,0,9,33.207c1.144,1.347,2.62,3.3,4.35,4.254-1.3,3.071-4.784-.039-6.018-1.442Zm3.381,3.7C9.036,40.73,7,39.969,5.491,38.774a15.5,15.5,0,0,1-1.8-1.69c-.209-.231-.626-.58-.7-.89a.613.613,0,0,1-.135-.3,4.911,4.911,0,0,1,.811-.9c.344-.293.761-.49,1.1-.772a13.7,13.7,0,0,0,1.257,1.73A17.344,17.344,0,0,0,10.721,39.721Zm.006-6.4c-.417-.417-.862-.828-1.257-1.268a5.751,5.751,0,0,1-.918-1.2c-.631-1.11-.287-1.961,1.02-2.541a14.486,14.486,0,0,0,1.938,2.31,21.116,21.116,0,0,0,3.967,4.22c.214.214.44.423.671.62-1.583,2.412-4.322-1.037-5.426-2.141Zm-.361-6.874a1.593,1.593,0,0,1,1.409-.614c-.118.175-.248.344-.383.513a3.144,3.144,0,0,0-1.02.1Zm-1.1,1.324c.022.045.045.084.068.13A1.624,1.624,0,0,0,7.785,29.28c-.006.034-.011.068-.017.1a1.5,1.5,0,0,1,.056-.473,1.531,1.531,0,0,1,1.437-1.127ZM6.68,30.029a3.239,3.239,0,0,0-1.279,3.5C4.838,32.244,4.607,29.714,6.68,30.029Zm-2.508,2.9a4.816,4.816,0,0,0,.265.665,1.915,1.915,0,0,0-1.888.642A1.34,1.34,0,0,1,4.179,32.92Zm-1.95,8.8a5.475,5.475,0,0,1-.631-6.418,3.813,3.813,0,0,0,.254.806.165.165,0,0,0-.237.068A5.878,5.878,0,0,0,2.657,42.11,3.988,3.988,0,0,1,2.223,41.727Zm.366-.383a5.48,5.48,0,0,1-.654-5,10.819,10.819,0,0,0,1.888,2.581,13.258,13.258,0,0,0,4.068,3.144C5.97,43.2,4.117,43.581,2.584,41.338Zm6.176.107a5.472,5.472,0,0,1-1.121-.518,13.773,13.773,0,0,1-2.113-1.538c1.8,1.285,3.961,2.017,5.809.614.113.045.225.09.332.13-.417.485-.828.975-1.245,1.459a2.555,2.555,0,0,1-1.668-.141ZM11.78,39.3a.359.359,0,0,0-.068-.068,2.417,2.417,0,0,0,2.1-1.55,5.281,5.281,0,0,0,.609.22c.068.017.141.034.214.045a.4.4,0,0,0-.09.175c-.434,1.5-1.538,1.617-2.755,1.178Zm1.51-2.992c1.223.721,2.446.862,3.291-.5.1.073.192.146.287.208-.428,1.7-2.49,1.082-3.572.293Zm6.953-1.324c-.62.372-1.24.738-1.86,1.11-.214-.085-.434-.175-.648-.259a.1.1,0,0,0-.006-.039,2.174,2.174,0,0,0,2.017-1.364.355.355,0,0,0,0-.366c.1-.045.192-.084.282-.13a.3.3,0,0,0,.321.113.2.2,0,0,0,.056-.011A1.211,1.211,0,0,1,20.243,34.988Zm-.09-2.282A10.885,10.885,0,0,0,18.727,31.3a35.231,35.231,0,0,1,7.928-6.564A33.016,33.016,0,0,1,31.9,22.163c.163-.062.332-.124.5-.18-.98,2.862,5.077,5.59,6.44,1.938.676-1.82-.71-3.55-2.282-4.26a13.026,13.026,0,0,0-2.22-.749c-2.006-.676-4.147-1.133-6.119-1.69-1.1-.316-2.209-.625-3.313-.941.248-2.13-.051-4.35-1.983-5.094A2.961,2.961,0,0,0,18.97,14.6c.468,1.91,2.023,2.654,3.77,2.947A17.974,17.974,0,0,1,21.19,21.1a23.627,23.627,0,0,1-6.035,6.863A10.108,10.108,0,0,0,12.8,25.572c2.344-3.7.93-8.914,2.2-13A15.226,15.226,0,0,1,28.876,1.991c6.243-.242,12.639,3.33,14.391,9.579a14.993,14.993,0,0,1-5.443,15.693,19.517,19.517,0,0,1-9.461,3.9c-2.767.383-5.618.445-8.2,1.544ZM23.28,11.992a.3.3,0,0,0-.169-.147,2.189,2.189,0,0,0-2.75,1.088,2.35,2.35,0,0,0,1.172,3.139,10,10,0,0,0,1.42.676c-.034.135-.068.27-.107.406-1.623-.31-3.071-.986-3.5-2.648a2.525,2.525,0,0,1,3.736-2.755,2.648,2.648,0,0,1,.389.3A.379.379,0,0,0,23.275,12Zm-.163,3.787a3.43,3.43,0,0,1-1.64-.84,1.554,1.554,0,0,1,1.471-2.564A14.462,14.462,0,0,1,23.117,15.779Zm.451-3.623s-.017-.023-.028-.04c1,1,.986,2.654.851,4.018-.124-.034-.248-.068-.372-.107a6.091,6.091,0,0,0-.456-3.877ZM39.615,27.978a21.425,21.425,0,0,1-9.309,4.2,47.161,47.161,0,0,1-5.916.58c1.741-.259,3.522-.383,5.274-.693a20.093,20.093,0,0,0,8.514-3.7A16.144,16.144,0,0,0,44.7,13.125a14.451,14.451,0,0,0-.552-2.35,16.088,16.088,0,0,1,.6,1.521c1.888,5.753-.547,11.946-5.133,15.682Z" transform="translate(63.308 329.59) rotate(-90)" fill="#1d78ec"/>
    <path id="Path_108029" data-name="Path 108029" d="M679.5,511.21a.237.237,0,0,0-.1-.276,4.362,4.362,0,0,0-.766-3.375,6.871,6.871,0,0,0-1.285-1.82c-.749-.766-2.761-2.462-4.2-2.586v-.09c1.33-1.454.1-3.482-1.42-4.378a10.513,10.513,0,0,0-2.124-.964c-.152-.1-.31-.2-.462-.282-1.448-.806-3.578-1.4-4.913-.242a.143.143,0,0,0-.079.017.8.8,0,0,0-.434.839c-2.344-2.868-10.013-5.736-12.194-1.668-2.795,1.955-4.057,6.069-5.488,8.937-2.209,4.429-4.446,8.841-6.649,13.275-2.152,4.333-4.271,8.683-6.407,13.022-1.065,2.169-2.141,4.339-3.2,6.514a10.462,10.462,0,0,0-1.347,3.973.125.125,0,0,0-.186.084c-.282,2.293,1.916,4.209,3.4,5.663a33.464,33.464,0,0,0,7.472,5.505c5.054,2.744,11.585,4.9,17.355,3.544a.193.193,0,0,0,.141-.225.176.176,0,0,0,.028-.034c2.045-3.826,3.837-7.793,5.86-11.636,1.972-3.747,3.989-7.477,5.99-11.213s3.961-7.483,5.86-11.269c1.826-3.64,4.023-7.387,5.156-11.315Zm-32.9-5.083-4.846,9.849c-2.941,5.979-5.978,11.923-8.807,17.952a35.3,35.3,0,0,0-3.854,7.7.324.324,0,0,0-.011.073.847.847,0,0,0-.141.327c.152-1.719,1.166-3.319,1.916-4.846q1.53-3.111,3.06-6.215,2.992-6.069,5.973-12.137c1.933-3.956,3.837-7.917,5.748-11.878,1.448-3,2.738-6.683,5.1-9.2-1.555,2.677-2.772,5.607-4.13,8.368Zm28.456-1.527a10.023,10.023,0,0,1,1.206.811,15.468,15.468,0,0,0-3.11-1.448c0-.107.006-.214.006-.316A9.542,9.542,0,0,1,675.053,504.6Zm-2.553,0c-.2.873-.609,1.595-1.454,1.612a7.554,7.554,0,0,1-3.212-1.071,7.8,7.8,0,0,0,3.448.507.292.292,0,0,0,.242-.186,6.492,6.492,0,0,0,.609-1.161.324.324,0,0,0,.2.242c.056.023.107.045.163.062Zm-7.691-5.5a13.263,13.263,0,0,0,5.032,3.719,7.97,7.97,0,0,1-2.857-1.116,12.43,12.43,0,0,1-2.434-2.485c.062-.169.13-.332.192-.5a.383.383,0,0,0,.113,0A.264.264,0,0,0,664.809,499.1Zm.208-.462c1.042-1.11,3.139.231,4.136.772.772.417,3.032,1.527,2.62,2.53-.338.823-1.02.372-1.7.084a13.374,13.374,0,0,1-1.6-.817,18.945,18.945,0,0,1-3.212-2.508A.273.273,0,0,0,665.018,498.639Zm-1.319,2.254a3.555,3.555,0,0,0,.665-1.217,9.745,9.745,0,0,0,1,1.33,8.622,8.622,0,0,0,6.283,2.57l-.152.3a8.48,8.48,0,0,0-.524,1.121,9.865,9.865,0,0,1-7.314-4.08c.011-.011.022-.017.034-.028Zm8.954,2.733a1.685,1.685,0,0,1-.017.169c-.017,0-.028-.011-.045-.017a.324.324,0,0,0-.242.023c.023-.056.051-.107.073-.163a.237.237,0,0,0,.186,0,.08.08,0,0,0,.034-.011Zm.5-1.256a.734.734,0,0,0-.023-.107c0-.113-.006-.22-.006-.31a.158.158,0,0,0-.13-.169,7.123,7.123,0,0,0-1.679-2.66c1.3.772,2.384,1.91,1.837,3.251Zm-3.815-4.13.1.034c.214.147.411.293.6.439a6.65,6.65,0,0,1,.806.783,15.076,15.076,0,0,0-3.037-1.606,10.377,10.377,0,0,1,1.533.349Zm-1.888-.947a6.315,6.315,0,0,0-1.814.152,1.357,1.357,0,0,0-.727.231,5.64,5.64,0,0,0-.592.276c.068-.152.135-.3.2-.456v-.028a3.5,3.5,0,0,1,2.936-.18Zm-2.975.9c-.09.146-.186.3-.276.445-.034-.073-.068-.152-.1-.22.023-.056.051-.107.073-.163a.106.106,0,0,0,.1.006A2.011,2.011,0,0,1,664.477,498.188Zm-1.775,3.477c.749,1.662,3.144,3.088,4.705,3.877,1.054.53,3.516,1.8,4.711,1.245.592-.276.851-1.071.964-1.961,1.814.693,3.747,1.431,4.857,3.1a4.3,4.3,0,0,1,.58,3.11c-1.848,2.074-6.08.175-8.215-.6a41.773,41.773,0,0,1-6.44-3,43.349,43.349,0,0,1-6.266-4.356c-1.448-1.206-5.714-4.322-4.316-6.615a2.319,2.319,0,0,1,.93-.372,6.692,6.692,0,0,1,2.958.327,25.457,25.457,0,0,1,5.973,2.631,3.159,3.159,0,0,0-.451,2.609Zm15.389,10.453a2.374,2.374,0,0,1-1.612,1.054c-1.978.361-4.406-1.285-6.136-2.091-.248-.118-.5-.237-.744-.349q1.378.533,2.789.964C674.061,512.2,676.467,512.962,678.09,512.117Zm-16.78-5.7c-1.071-.637-2.124-1.3-3.15-2.012-1.7-1.178-3.8-2.513-5.032-4.215a3.294,3.294,0,0,1-.62-2.536c.152,1.324,1.6,2.682,2.429,3.51a43.328,43.328,0,0,0,6.367,5.252Zm-3.617-11.055c1.978.541,4.277,1.437,5.6,3.077a19.34,19.34,0,0,0-5.392-2.581c-1.51-.456-3.426-.958-4.908-.124-.147.085-.276.169-.4.254a.152.152,0,0,0-.039-.045,6.14,6.14,0,0,1,5.139-.58Zm-1.274,8.689a77.3,77.3,0,0,0,13.85,7.883c1.921.9,5.105,2.7,7.218,1.82-1.95,3.37-3.786,6.807-5.59,10.266a.274.274,0,0,0-.13-.056,52.567,52.567,0,0,1-15.1-4.913c-4.305-2.2-8.559-4.976-11.022-9.241.5-1.02.992-2.034,1.488-3.054,1.471-3.02,3.189-6.041,4.406-9.185-.344,2.389,3.437,5.393,4.885,6.48Zm-.93,51.355a36.748,36.748,0,0,1-14.881-3.15,31.577,31.577,0,0,1-6.424-3.944,19.483,19.483,0,0,1-2.31-2.158c-.3-.332-2.519-3.1-2.288-4.074a.351.351,0,0,0,.13-.141c.017-.034.034-.073.056-.113a.388.388,0,0,1,.084-.039.238.238,0,0,0,.107-.349c.885-1.8,1.752-3.651,2.547-5.511a.371.371,0,0,0,.468-.186c3.308-6.4,6.356-12.937,9.511-19.412l2.648-5.438c1.843,4.311,6.153,6.813,10.137,8.9,4.682,2.451,10.424,5.781,15.913,5.618-1.38,2.654-2.744,5.319-4.13,7.956-3.837,7.314-7.714,14.617-11.512,21.947a.326.326,0,0,0-.034.1Zm15.845-30.817a42.466,42.466,0,0,1-7.934-1.944c-2.429-.947-4.756-2.13-7.072-3.308-4.08-2.068-8.221-4.35-10.458-8.475,2.4,3.657,6.317,6.125,10.1,8.187a51.484,51.484,0,0,0,15.648,5.5c-.028.051-.056.1-.079.152a.375.375,0,0,0-.2-.113Zm-31,28.9a33.256,33.256,0,0,1-6.717-4.384c-1.674-1.409-4.215-3.432-4.93-5.714.141.028.3-.051.271-.231a4.656,4.656,0,0,1-.045-.558,8.266,8.266,0,0,0,1.336,2.879,21.574,21.574,0,0,0,6.632,5.8,33.07,33.07,0,0,0,19.04,5.009.409.409,0,0,0,.355-.592.02.02,0,0,0,.006-.011q.837-1.58,1.662-3.155c-.58,1.307-1.127,2.62-1.623,3.95-5.4.778-11.14-.609-15.991-2.992Zm27.509-19.643c-.778,1.431-1.578,2.862-2.384,4.3q1.149-2.214,2.3-4.423c2.412-4.621,4.908-9.23,7.274-13.9-.406.935-.823,1.865-1.273,2.778-1.876,3.792-3.894,7.528-5.917,11.241Z" transform="translate(-274.236 -215.802)" fill="#1d78ec"/>
    <path id="Path_108037" data-name="Path 108037" d="M295.1,434.732a3.311,3.311,0,0,0,2.029-1.995c.462-1.578-.682-3.465-1.645-4.632a6.807,6.807,0,0,0-7.725-2.248c1.578-1.865-.338-5.319-2.564-6.1a4.864,4.864,0,0,0-4.266.524,5.968,5.968,0,0,0-1.8,1.865c-.3-2.26-2.451-3.787-4.559-4.367a13.51,13.51,0,0,0-9.28.924,12.183,12.183,0,0,0-5.663,5.747,11.631,11.631,0,0,0-1.149,4.373c-3.167-2.682-8.418-1.38-11.027,1.628-2.5,2.885-4.6,9.089-.761,11.444-2.451.913-3.623,4.592-3.646,6.942a3.705,3.705,0,0,0,3.86,4.113c-1.792,2.276-1,6.762.5,8.954a8.961,8.961,0,0,0,5.522,3.77c2.338.462,4.491-.428,6.486-1.55-.293,2.209,2.164,4.091,4.44,4.079a5.875,5.875,0,0,0,5.809-5.793,73.5,73.5,0,0,1,3.725,7.607q2.9,6.415,5.167,13.084a.291.291,0,0,0,.3.175,9.538,9.538,0,0,0,4.542-1.645.255.255,0,0,0,.113-.271.2.2,0,0,0,.355-.118c-.332-5.719-.749-11.439-.592-17.169.045-1.617.163-3.206.327-4.784a3.6,3.6,0,0,0,3.865.6,3.51,3.51,0,0,0,2.085-3.212c.118.039.237.079.355.113a8.944,8.944,0,0,0,8.1.327,10.677,10.677,0,0,0,5.883-7.877c1.166-5.838-2.316-14.605-8.773-14.509Zm-.969-7.083a6.975,6.975,0,0,1,2.248,3.448c.389,1.679-.411,2.355-1.448,3.031a5.389,5.389,0,0,0,.062-5.088c-1.364-2.541-4.384-3.274-7.06-2.767a6.6,6.6,0,0,1,6.193,1.375Zm-12.921-6.936a4.217,4.217,0,0,1,3.336-.53,3.588,3.588,0,0,1,2.795,4.559,4.17,4.17,0,0,0-1.933-3.1,4.884,4.884,0,0,0-5.928,1,13.178,13.178,0,0,1,1.736-1.921Zm-21.581,5.06a11.164,11.164,0,0,1,1.448-2.7,11.814,11.814,0,0,1,5.207-4.034,13.088,13.088,0,0,1,6.6-.828,11.728,11.728,0,0,0-5.731,1.138c-4.119,1.859-7.8,5.809-7.748,10.475-.028-.039-.062-.073-.09-.113a.1.1,0,0,0-.051-.068l-.011-.011c-.073-.085-.141-.169-.214-.254-.394-.851.406-3.082.6-3.6ZM245.311,435.96a10.571,10.571,0,0,1,3.268-5.747,7.725,7.725,0,0,1,5.657-1.983,8.9,8.9,0,0,0-7.027,3.95c-1.566,2.333-2.2,6.249-.637,8.666A5.177,5.177,0,0,1,245.311,435.96Zm.857,16.425c-2.113-.445-2.637-2.372-2.462-4.294.028-.282.062-.558.113-.823v.1a5.337,5.337,0,0,0,3.888,4.835,3.955,3.955,0,0,0-.378.293,5.656,5.656,0,0,1-1.155-.107Zm7.674,12.813a8.022,8.022,0,0,1-5.392-2.857c-2.282-2.643-3.088-7.314-.293-9.455.152-.023.3-.051.456-.079a7.854,7.854,0,0,0,.637,9.444,8.451,8.451,0,0,0,8.463,2.169,8.751,8.751,0,0,1-3.871.772Zm11.365,2.243c-2.6.789-5.809-.834-5.252-3.634.034-.017.068-.039.1-.056-.045,2.062,2.175,3.539,4.322,3.229a5.969,5.969,0,0,0,4.6-3.555,5.544,5.544,0,0,1-3.77,4.018Zm13.67,14.848a7.317,7.317,0,0,1-.7-2.074q-.364-1.031-.744-2.062c-.98-2.637-2.034-5.252-3.217-7.8-1.166-2.524-2.4-5.026-3.747-7.466-.276-.507-.563-1.009-.868-1.5a64.934,64.934,0,0,1,9.788,21.192,1.1,1.1,0,0,1-.513-.282Zm1.065.321a.274.274,0,0,0,.011-.118c-.017-.09-.039-.18-.056-.27a.412.412,0,0,0,.366.045c.625-.18,1.251-.355,1.876-.535a5.844,5.844,0,0,1-2.192.879Zm2.7-18.336a164.923,164.923,0,0,0,.823,17.011.042.042,0,0,0,.006.023.3.3,0,0,0-.451-.147c-.163.107-.366.242-.6.394a.276.276,0,0,0,.034-.1.26.26,0,0,0,.135-.276,98.232,98.232,0,0,1-.361-17.271c.152-1.893.389-3.764.687-5.618h0c-.169,2.012-.248,4.023-.276,5.984Zm-.67,16.679s-.039.006-.062.011l-1.95.575a.363.363,0,0,0-.18.152,55.951,55.951,0,0,0-11.827-23.886,4.509,4.509,0,0,0,1.228-.755,29.643,29.643,0,0,0,4.756,7.336c1.065,1.189,3.009,3.578,4.728,2.006a4.149,4.149,0,0,0,.986-2.062c.49-1.786.9-3.6,1.341-5.4.907-3.68,2.045-7.387,2.677-11.123a.343.343,0,0,0-.248-.378,2.825,2.825,0,0,0,.451-.569,3.377,3.377,0,0,0,.592.541,71.166,71.166,0,0,0-2.491,33.538Zm-15.31-23.6a5.112,5.112,0,0,1-2.519-.31c1.493.225,3,.22,4.142-.947a6.184,6.184,0,0,0,1.482-3.691c.169,1.3.3,2.451-.687,3.646a3.812,3.812,0,0,1-2.412,1.307Zm.907,1.392c-.225-.225-.462-.434-.71-.637a.385.385,0,0,0,.085-.011.4.4,0,0,0,.079-.017c.186.22.361.445.541.665Zm5.815-2.338a3.084,3.084,0,0,0,2.823-1.955c1.042,1.037,2.823.84,4.175-.028-.654,2.3-1.459,4.564-2.079,6.919-.225.862-.3,3.144-1.521,2.727-.885-.3-2.051-1.775-2.682-2.429a35.732,35.732,0,0,1-4.192-5.37,4.508,4.508,0,0,0,.366-.592,5.519,5.519,0,0,0,.349-.907,3.229,3.229,0,0,0,2.767,1.623Zm-2.609-2.389a5.323,5.323,0,0,0,.039-.732,3.7,3.7,0,0,0,2.457,1.662,2.359,2.359,0,0,0,2.3-1.189,2.335,2.335,0,0,1-2.9,1.758A3.224,3.224,0,0,1,270.78,454.014Zm5.607-.073a3.5,3.5,0,0,0,2.936.485c-.051.023-.1.045-.147.062a2.8,2.8,0,0,1-2.789-.552Zm4.885-.254.051-.051c-.738,3-1.375,6.023-2.1,8.993-.3,1.245-.614,4.44-3,2.941a13.19,13.19,0,0,1-2.609-2.755,37.484,37.484,0,0,1-4.1-6.069c.062-.062.118-.13.18-.2,1.437,2.344,6.97,10.171,8.424,7.934.631-.964.659-2.693.986-3.8.434-1.482.941-2.947,1.409-4.418.271-.845.53-1.7.761-2.569Zm.355-1.476a17.916,17.916,0,0,0,.394-3.319,1.967,1.967,0,0,0,.806-.687c-.406,1.285-.772,2.586-1.116,3.9-.028.039-.056.073-.09.113Zm5.443,7.19a3.489,3.489,0,0,1-3.448-.53c.006-.068.011-.13.023-.2a4.477,4.477,0,0,0,5.173-1.341A3.154,3.154,0,0,1,287.07,459.4Zm1.606-3.775a3.49,3.49,0,0,1-4.919,2.051,96.272,96.272,0,0,1,1.792-9.7,3.041,3.041,0,0,0,3.741-1.11c.2-.327-.18-.851-.524-.535a3.018,3.018,0,0,1-3.916.406c1.5.49,3.364.3,4.2-1.088a.2.2,0,0,0-.271-.276,5.757,5.757,0,0,1-2.344,1.082,3.9,3.9,0,0,1-2.068-.293c-.056-.09-.118-.192-.169-.293-.141-.293-.648-.372-.766-.006-.834,2.524-4,2.051-4.44-.485a.233.233,0,0,0-.462.056,2.724,2.724,0,0,0,3.031,2.829.229.229,0,0,0-.056.13.843.843,0,0,1-.011.118,1.913,1.913,0,0,1-1.758-.276A5.562,5.562,0,0,1,277.9,445.2a.1.1,0,0,0-.192.051c.2,1.589.969,3.392,2.671,3.832a2.344,2.344,0,0,0,1.065.006c-.068.721-.169,1.431-.3,2.136a.321.321,0,0,0-.293.276c-.394,2.248-2.97,3.308-4.559,1.364a.393.393,0,0,0-.637.039.166.166,0,0,0-.051-.011c-.011-.034-.017-.068-.028-.107a.143.143,0,0,0-.271.034c-.423,1.814-2.045,2.085-3.409.98a6.044,6.044,0,0,1-1.273-1.566,2.315,2.315,0,0,0-.468-.794c-.011-.011-.023-.017-.034-.028l-.237-.372a.183.183,0,0,0-.287,0,.206.206,0,0,0-.214.186,9.192,9.192,0,0,1-1.042,3.944c-1,1.476-2.507,1.651-4.136,1.544a.231.231,0,0,0-.028-.231c-.406-.547-1,.011-.8.575.327.93,1.955,1.138,3.015,1.087a19.377,19.377,0,0,1,2.367,2.879v.028a4.9,4.9,0,0,1-3.065,4.677,4.041,4.041,0,0,1-3.212.18,2.339,2.339,0,0,1-1.465-3.088.385.385,0,0,0-.58-.456c-3.144,2.22-8.013,2.282-10.667-.789a6.977,6.977,0,0,1,.518-9.444c.265-.276-.09-.659-.4-.563a.331.331,0,0,0-.079-.011,4.738,4.738,0,0,0-1.065.163,4.844,4.844,0,0,1-4.029-4.018,4.668,4.668,0,0,1,4.711-4.919.453.453,0,0,0,.135-.9c-4.536-1.031-3.234-7.342-1.11-9.911a7.6,7.6,0,0,1,11.174-.772c.282.276.766-.045.716-.4-.625-4.4,2.5-8.2,6.193-10.182,4.13-2.209,10.289-2.367,11.7,3.116a.36.36,0,0,0,.693.068.234.234,0,0,0,.259-.079c1.285-1.482,3.5-2.519,5.4-1.55a3.393,3.393,0,0,1,1.3,4.812.482.482,0,0,0,.558.738c2.395-1.065,5.742-.986,7.4,1.364,1.442,2.045.766,5.291-1.634,6.226a.478.478,0,0,0,.361.885,7.136,7.136,0,0,1,2.778-.513c4.384,2.485,7.269,6.919,6.221,12.182-.952,4.778-5.111,8.723-9.912,8.672a7.019,7.019,0,0,1-2.226-1.223.489.489,0,0,0-.772.3Zm14.2-6.536a9.636,9.636,0,0,1-5.263,7.1,8.555,8.555,0,0,1-3.725.744,11.425,11.425,0,0,0,8.1-8.024,12.054,12.054,0,0,0-4.384-12.718c4.187,1.882,6.136,8.537,5.274,12.892Z" transform="translate(-106.093 -182.182)" fill="#1d78ec"/>
    <path id="Path_108038" data-name="Path 108038" d="M473.015,386.065a15.591,15.591,0,0,0-6.762-2.406c-3.184-.575-6.362-1.155-9.523-1.826-6.6-1.392-13.106-3.082-19.632-4.761h-.023a3.915,3.915,0,0,0-2.361-3.043.4.4,0,0,0,.107-.09c1.1-1.431,2.175-2.885,3.251-4.333a7.142,7.142,0,0,0,1.736-3.5,17.417,17.417,0,0,0-.58-4.536q-.465-2.7-.935-5.409c-1.042-5.922-1.352-12.87-4.908-17.935a.187.187,0,0,0-.321.051c-3.291,11.484-2.586,24.021-1.437,35.781a4.7,4.7,0,0,0-2.688,4.254,3.471,3.471,0,0,0,.107.845.123.123,0,0,0-.045.006.431.431,0,0,0-.445-.4c-2.1.09-4.187.22-6.283.344-1.313.079-2.755,0-3.843.856-1.127.89-1.747,2.384-2.468,3.584q-1.572,2.612-3.262,5.15-3.22,4.818-6.88,9.32c-1.273,1.566-2.615,3.077-3.933,4.609a7.466,7.466,0,0,0-2.079,4.068.343.343,0,0,0,.3.372,3.285,3.285,0,0,0,2.817-.9c1.409-1.093,2.733-2.31,4.085-3.471q4.226-3.634,8.39-7.331c5.15-4.575,10.509-9.111,15.208-14.16a2.722,2.722,0,0,0,.547.225c-2.451,9.049-3.967,18.437-5.764,27.633Q424,416.169,422.775,423.3c-.823,4.84-1.809,9.743-2.175,14.639a.227.227,0,0,0,.451.051h0a17.976,17.976,0,0,0,6.3,1.645c1.082.068,2.277-.011,2.767-1.1a.267.267,0,0,0-.355-.344,43.646,43.646,0,0,0,.749-6.474q.33-3.609.654-7.224c.44-4.925.89-9.85,1.319-14.78.817-9.427,1.865-18.9,1.972-28.377a4.033,4.033,0,0,0,2.085-1.662c2.254,1.285,3.223,3.978,5.5,5.263,2.761,1.561,6.593,1.4,9.658,1.713a85.623,85.623,0,0,0,21.175,0,.324.324,0,0,0,.141-.575ZM454.736,382.1c2.975.665,5.973,1.262,8.97,1.82,2.784.513,5.68.84,8.176,2.22-.49.068-.986.13-1.476.186.034-.045.062-.1.1-.163a.423.423,0,0,0-.062-.428c-.479-.625-1.319-.609-2.051-.761l-4.435-.913c-3.071-.631-6.148-1.257-9.213-1.9-5.905-1.24-11.8-2.569-17.654-4.046a4.015,4.015,0,0,0,.028-.586,1.2,1.2,0,0,0-.011-.147C442.886,379.281,448.808,380.774,454.736,382.1ZM437.341,378.9c4.976,1.42,10.013,2.581,15.079,3.657,2.755.586,5.516,1.149,8.272,1.713,1.476.3,2.958.6,4.435.907.558.113,1.116.231,1.674.344-4.9-.513-9.866-.659-14.78-.952l-4.254-.254c-1.3-.079-2.947.079-4.17-.468a17.924,17.924,0,0,1-3.494-2.75c-.473-.389-.941-.778-1.414-1.172-.248-.208-.879-.614-1.358-1.025Zm-.862-1.4v.18h-.023c.006-1.352-1.414-3.093-2.755-2.383a3.606,3.606,0,0,0-.93-.2.313.313,0,0,0,.023-.13c0-.141-.006-.276-.011-.417a.477.477,0,0,0,.485-.152c.034-.034.062-.073.1-.107a3.326,3.326,0,0,1,3.122,3.206Zm-8.6,60.461c-.659-.2-5.432-.321-5.674-1.121,2.017-9.326,3.809-18.7,5.556-28.078q1.31-7.007,2.53-14.025c.766-4.4,1.657-8.813,2.124-13.259a.634.634,0,0,0,.1-.017.288.288,0,0,0,.163.068,3.43,3.43,0,0,0,.535.023c-1,9.2-1.307,18.5-2.164,27.717q-.668,7.2-1.476,14.4-.389,3.431-.806,6.857c-.3,2.457-.794,4.959-.885,7.432Zm4.6-57.165a3.581,3.581,0,0,0,.811-.062,1.186,1.186,0,0,1-.017.141,4.212,4.212,0,0,1-.535.023.335.335,0,0,0-.27.124h-.017c.006-.079.017-.152.023-.231Zm-1.121-1.206a2.236,2.236,0,0,1-.513-2.885,2.562,2.562,0,0,1,2.491-1.037.319.319,0,0,0,.293.394,1.886,1.886,0,0,1,1.459.372,1.611,1.611,0,0,1,.175,2.141C434.513,379.7,432.557,380.458,431.363,379.591Zm2.947-6.035a.294.294,0,0,0-.028.321,3.857,3.857,0,0,0-.456-.107l2.507-2.812c.237-.265.5-.53.761-.8C436.141,371.386,435.07,372.536,434.31,373.556Zm3.426-5.612a20.064,20.064,0,0,1-2.372,2.677c-.868.975-1.741,1.955-2.609,2.936a245.767,245.767,0,0,1,1.166-28.512c.969,4.513,1.921,9.027,2.829,13.546q.38,1.9.755,3.809C437.831,364.078,438.688,366.36,437.736,367.943Zm-6.4-12.408a88.6,88.6,0,0,1,.6-8.976c.18-1.482.406-2.964.687-4.435.141-.738.31-1.465.462-2.2.214-.992.079-1.538.851-.146a24.693,24.693,0,0,1,2.338,7.742c.513,2.9.98,5.815,1.476,8.723.49,2.885,1.245,5.838,1.488,8.756a4.62,4.62,0,0,1-.079,1.245,13.69,13.69,0,0,0-.225-1.459c-.276-1.482-.575-2.964-.868-4.446-1.211-6.136-2.485-12.256-3.865-18.352a.463.463,0,0,0-.913.022c-.806,10.593-2.012,21.243-1.211,31.87a1.7,1.7,0,0,0-.18.062c-.271-6.131-.693-12.267-.569-18.409Zm.8,18.938c.017.2.028.394.045.592a.1.1,0,0,0,.011.039,2.692,2.692,0,0,0-2.175,1.459,2.907,2.907,0,0,0-.073,2.457l-.287.045a3.067,3.067,0,0,1-.1-1.172,4.055,4.055,0,0,1,2.575-3.409ZM418,381.382c1.24-1.736,3.11-1.527,5.015-1.6.806-.034,1.617-.062,2.423-.1l-.547.085a30.735,30.735,0,0,0-4.429.71c-1.285.394-1.921,1.381-2.7,2.423q-1.691,2.248-3.375,4.491c-.237.316-.473.631-.716.947,1.454-2.31,2.75-4.75,4.333-6.959Zm-4.023,8.182,3.178-4.232c.89-1.183,1.893-3.217,3.279-3.826,1.426-.625,3.4-.592,4.925-.811,1.364-.2,2.733-.4,4.1-.6a3.1,3.1,0,0,0,.282.389c-8.587,7.01-16.893,14.38-25.227,21.694q4.733-6.305,9.472-12.616Zm2.215,4.232q-3.558,3.186-7.173,6.305-1.927,1.665-3.871,3.308c-1.178,1-2.908,3.071-4.62,3.02.3-1.843,1.651-3.172,2.851-4.542.327-.372.642-.749.964-1.121l-3.454,4.6c-.332.44.276,1.054.7.682,9.534-8.351,19.2-16.577,28.461-25.244.068.056.135.113.208.163-4.84,4.091-9.348,8.6-14.064,12.825Zm14.859-13.084a.172.172,0,0,0-.265-.192c-.011.006-.017.017-.028.028a2.534,2.534,0,0,1-.248-.18c.107-.175-.1-.411-.282-.276a1.138,1.138,0,0,1-.079-.09c.062-.011.13-.017.192-.028a.534.534,0,0,0,.175-.062,2.647,2.647,0,0,0,1.262.778c.056.017.118.023.18.039-.023.085-.039.169-.056.254a3.029,3.029,0,0,1-.845-.27Zm-9.917,56.956h-.022c.947-4.615,1.493-9.326,2.288-13.969q1.217-7.134,2.558-14.25c1.747-9.314,4.119-18.583,5.494-27.96a3.113,3.113,0,0,0,.321.039c-.975,4.328-1.589,8.751-2.355,13.118q-1.234,7.015-2.541,14.025c-1.758,9.449-3.685,18.865-5.578,28.292a.364.364,0,0,0,.332.456,1.567,1.567,0,0,0,.7.609c-.4-.113-.8-.231-1.195-.355Zm7.6.468c1.076-4.632,1.279-9.635,1.8-14.357q.38-3.457.733-6.925l-.642,7.235c-.214,2.406-.434,4.818-.642,7.224a44.148,44.148,0,0,0-.44,6.942.066.066,0,0,0,.034.056c-1.042,1.138-2.908.648-4.215.428-.535-.09-1.059-.208-1.583-.338.439.062.885.1,1.3.146a9.089,9.089,0,0,0,2.733.09.354.354,0,0,0,.254-.208.442.442,0,0,0,.671-.293Zm4.632-44.182c.3-4.158.518-8.323.518-12.47a.144.144,0,0,0,.039-.011c-.006,4.17-.231,8.323-.552,12.475Zm.947-13.315a.247.247,0,0,0-.377.124.181.181,0,0,0-.051.017v-.186a4,4,0,0,0,2.186-1.679,1.043,1.043,0,0,0,.1.124,3.345,3.345,0,0,1-1.848,1.6Zm7.382,3.3a10.11,10.11,0,0,1-1.786-1.786l1.521,1.268a6.124,6.124,0,0,0,2.924,1.617,40.8,40.8,0,0,0,4.621.31c6.8.411,13.659,1.1,20.477,1a.082.082,0,0,0,.011.017l.034.051a94.626,94.626,0,0,1-17.727-.389c-3.172-.3-7.4-.124-10.069-2.085Z" transform="translate(-174.525 -147.613)" fill="#1d78ec"/>
    <g id="Group_122623" data-name="Group 122623" clip-path="url(#clip-path)">
      <g id="Group_122622" data-name="Group 122622" transform="translate(31.346 290.49)">
        <path id="Path_108044" data-name="Path 108044" d="M469.2,685.847c-8.261-37.46-28.382-72.835-54.556-100.659a225.079,225.079,0,0,0-98.659-60.782c-19.958-6.012-41.28-9.838-62.174-8.661-11.162.631-22.139,2.885-33,5.4s-21.716,5.1-32.411,8.249C170.2,534.751,152.835,542.161,137,552.687a181.916,181.916,0,0,0-38.356,34.3c-22.009,26.111-37.313,58.5-41.928,92.438-.563,4.125-.918,8.244-1.082,12.4-.011.214.31.208.327,0q.828-8.816,2.412-17.456-1.141,6.973-1.651,14.025c-.056.744,1.082.727,1.149,0a172.709,172.709,0,0,1,52.167-108.666A198.459,198.459,0,0,1,127,565.156c.676,2.733,3.516,4.4,5.787,5.99,2.214,1.555,4.091,3.161,4.547,5.95a12.349,12.349,0,0,0,.552,2.575.627.627,0,0,0-.062.907,14.69,14.69,0,0,1,3.144,6.846c-.659,2.412-1.882,4.643-2.293,7.151a31.515,31.515,0,0,0-.361,4.435,8.1,8.1,0,0,0-.338,4.232c.113.727.237,1.431.344,2.124-.135,5.877-1.319,11.377-7.551,13.867-4.671,1.871-10.407,2.017-14.121,5.8-4.153,4.232-4.215,11.01-7.1,16.008a30.171,30.171,0,0,1-3.82,5.2c-3.223,2.017-7.393,2.784-10.977,4.158-9.4,3.623-19.186,8.441-25.6,16.476-4.474,5.6-9.866,19.023-.338,22.883.642.259,1.116-.845.479-1.133-5.257-2.372-4.885-9.134-3.195-13.715a30.118,30.118,0,0,1,9.59-12.594,62.867,62.867,0,0,1,13.907-8.255q4.615-2.088,9.41-3.736c1.217-.417,2.5-.761,3.758-1.161a50.566,50.566,0,0,1-7.37,5.336c-5.522,3.336-11.641,5.438-17.225,8.632-4.992,2.857-9.444,6.812-10.83,12.6-1.133,4.739-.124,9.827,4.023,12.734.355.248.665-.321.332-.575-5.06-3.882-4.626-11.41-1.51-16.4,3.454-5.533,9.957-8.385,15.659-10.977,6.914-3.144,14.121-6.914,19.547-12.351.361-.169.721-.344,1.065-.541,3.432-1.983,4.863-5.635,6.057-9.213,1.848-5.528,3.708-9.686,9.59-11.771,4.333-1.533,8.869-2.265,12.391-5.454a17.394,17.394,0,0,0,5.528-10.762,19.514,19.514,0,0,0-.5-6.007c-.006-1.482-.051-2.97-.051-4.451.614-2.186,2.045-4.147,2.581-6.463a15.483,15.483,0,0,0,.141-6.288,5.778,5.778,0,0,0-1.127-5.669c-.558-.625-1.1-.98-1.566-1.5,1.764-1.561,1.628-4.491.231-6.407-2.829-3.865-11.281-3.719-11.022-9.714a.239.239,0,0,0-.011-.062q7.768-5.832,16.048-10.92c.175.011.344.034.518.051a2.412,2.412,0,0,0,1.183.547c1.026.237,1.927.293,2.806.462a13.333,13.333,0,0,1,5.776,4.553c1.983,2.772,2.5,7.2,6.108,8.509a4.1,4.1,0,0,0,5.021-1.843,21.168,21.168,0,0,0,1.5-3.409,10.547,10.547,0,0,1,1.076-2.175,7.6,7.6,0,0,1,1.7.124c.856.135,1.606.547,2.491.637a6.889,6.889,0,0,0,3.347-.53,7.159,7.159,0,0,0,.778-.389,5.532,5.532,0,0,0,4.5-2.04,5.147,5.147,0,0,0,.868-3.144,14.516,14.516,0,0,1-.118-2.468,3.035,3.035,0,0,1,1.781-2.564,36.232,36.232,0,0,0,4.1-.907,4.848,4.848,0,0,0,3.313-4.384,7.351,7.351,0,0,0,.248-.851c.828-3.736-3.448-7.81-1.758-11.061,5.742-1.888,11.563-3.556,17.445-4.964,35.843-8.587,73.939-8.2,109.371,2.181q4.319,1.268,8.565,2.727c-7.2,2.778-13.3,7.641-18.837,12.988-4.271,4.13-11.647,10.914-6.908,17.332a5.427,5.427,0,0,0,5.376,2.3,4.812,4.812,0,0,0,1.516.022c2.693-.338,4.4-3.572,5.871-5.494a36.666,36.666,0,0,1,3.86-4.733c.716-.665,1.471-1.409,2.519-1.273.778-.27,1.121.023,1.025.879.006.034.011.073.017.107a.428.428,0,0,0-.118.259c-.242,3.11-.924,6.542-.637,9.658a3.848,3.848,0,0,0,2.778,3.623c4.643,1.352,7.06-3.5,8.886-6.745.862-1.533,1.944-3.3,3.617-4.063a4.255,4.255,0,0,1,1.533-.394c2.7.9,4.485,4.536,4.226,7.928-.727,2.581-2.378,5.088-3.606,7.2-3.189,5.494-9.455,12.977-16.735,9.472-2.941-1.414-7.534-7.945-11.253-3.815-1.116,1.24-.958,2.851-.823,4.406-.124.293-.242.586-.355.873a20.9,20.9,0,0,1-1.826,4.159c-1.769,2.6-4.688,2.62-7.511,2.226-9.7-1.358-19.085-1.893-28.8-.146-1.521.276-3.285.58-5.071,1.026a13.094,13.094,0,0,0-1.324.355c-4.468,1.285-8.728,3.561-9.252,8.385-.552,5.06,3.4,9.6,6.018,13.709.406,1.037.851,2.068,1.319,3.094s1,2.136,1.465,3.308a7.219,7.219,0,0,1-.423,4.012c-1.7,4.023-6.486,5.483-9.979,7.505-.8.462-1.583.969-2.344,1.5a9.032,9.032,0,0,0-1.583.733,11.567,11.567,0,0,0-4.429,5.009,21.521,21.521,0,0,0-4.344,9.782c-.98,6.305,1.228,13.473,6.672,17.163a13.928,13.928,0,0,0,2.727,1.42,11.3,11.3,0,0,0,2.524,1.392c10.261,4.046,17.22-7.9,20.263-15.7,2.355-6.04,4.812-13.287,11.044-16.38a14.218,14.218,0,0,1,15.259,2.1c2.389,3.758,3.291,8.407,3.809,12.746.411,3.465-.13,8.277,2.1,11.23,1.307,1.73,3.95,2.789,5.9,1.459,1.713-1.166,1.966-6.953,3.736-6.931.693.011,2.333,1.713,3.161,2.029a4.314,4.314,0,0,0,3.155.192c2.8-1.217,1.369-5.443,1.076-7.624q-.947-7.117-1.888-14.239a42.789,42.789,0,0,0,15.732,6.367,50.127,50.127,0,0,0,8.514.7c1.944.023,4.209,0,5.838,1.206a4.281,4.281,0,0,1,1.679,3.218,6.8,6.8,0,0,1-2.265,2.412c-4.784.992-11.039-1.9-15.5-1.978-5.561-.1-9.731,4.282-7.562,9.866,3.122,8.018,12.092,7.7,19.141,6.2,4.733-1.009,9.573-2.383,14.436-1.347a9.781,9.781,0,0,1,6.632,4.367c1.927,3.4-.073,6.328-3.246,7.776a22.3,22.3,0,0,1-7.353,1.882c-4.44-.079-9.128-1.133-12.864-1.685-3.894-.575-7.787-1.2-11.681-1.764-.079-.011-.163-.028-.242-.039-.254-.04-.507-.068-.761-.107-.22-.034-.44-.062-.659-.09s-.456-.062-.682-.09c-2.248-.3-4.5-.586-6.756-.811-14.07-1.392-27.706,1.273-41.725,1.634a60.2,60.2,0,0,1-20.911-2.947c-5.381-1.792-10.977-3.629-16.561-1.572-12.041,4.44-14.633,18.724-13.411,29.994.507,4.7,2.406,7.584,6.948,9.055,4.046,1.313,10.65,1.133,12.464,5.8.27.7,1.414.394,1.138-.316a7.3,7.3,0,0,0-3.719-3.984c.49.107.986.214,1.471.315.727.152,1.037-.958.31-1.116-3.911-.862-8.063-1.814-11.36-4.2-4.654-3.375-4.812-8.847-4.632-14.121.316-9.376,3.787-19.124,14.752-19.215,4.6-.039,9.106,1.273,13.557,2.3a75.768,75.768,0,0,0,14.678,1.888c10.655.338,21.249-1.155,31.859-1.837a116.18,116.18,0,0,1,31.51,2.113c5.939,1.234,12.52,2.66,18.707,1.865,3.837-.034,7.635-.834,10.374-3.781a7.92,7.92,0,0,0,.124-10.977c-3.882-4.333-9.974-4.192-15.293-3.634-3.584.378-7.156.812-10.734,1.223-3.477.394-7.731,1.341-10.937-.541-4.266-2.5-2.992-7.32,1.257-8.756,3.172-1.071,6.333-.09,9.5.473,3,.535,6.249.609,8.683-.935a.65.65,0,0,0,.586-.006,3.552,3.552,0,0,0,1.713-1.8,8.131,8.131,0,0,0,.857-.851c.2-.231-.124-.563-.338-.338-.079.085-.169.163-.254.248.011-.073.028-.141.034-.214,1.775-3.668-.845-6.367-4.435-7.184-5.533-1.262-11.45.58-16.949-.637-.794-.237-1.583-.5-2.361-.783-3.488-1.893-8.21-8.435-12.284-4.727-1.781,1.617-.89,4.39-.456,6.379a102.629,102.629,0,0,0,3.336,11.174c.394,1.172,1.1,6.136-1.651,4a7.61,7.61,0,0,1-1.431-2.417c-.778-1.426-1.572-2.891-3.319-3.15a.654.654,0,0,0-.772.44q-.972,2.595-1.95,5.19a9.9,9.9,0,0,1-.778,2.079c-3.324,3.561-4.249-.473-4.226-2.513.034-2.727.687-5.206.3-7.979A18.383,18.383,0,0,0,298.6,636.2a18.067,18.067,0,0,0-1.662-2.13c-3.663-3.989-9.827-6.542-15.067-4.266-3.1,1.347-5.15,4.158-6.931,6.919a73.265,73.265,0,0,0-5.815,10.977c-3.1,7.269-4.406,17.242-14.149,17.845a12.95,12.95,0,0,1-6.176-1.1c-6.2-5.156-7.055-17.969-4.823-24.556a15.939,15.939,0,0,1,.806-1.95,26.764,26.764,0,0,1,5.37-5.122,36.89,36.89,0,0,1,6.243-1.488c3.956-.823,7.821-2.62,8.266-7.139a14,14,0,0,0-1.133-6.367,19.034,19.034,0,0,0-2.648-5.967,24.62,24.62,0,0,1-1.178-3.206,31.325,31.325,0,0,1-1.088-9.917c.113-2.028.372-4.282,1.9-5.792s3.865-1.91,5.894-2.158a130.842,130.842,0,0,1,20.477-.648c5.6.2,12.881,2.271,18.076-.547a7.86,7.86,0,0,0,3.629-3.865,6.893,6.893,0,0,0,.406-2.868c-.011-.315-.068-.659-.113-1a7.743,7.743,0,0,1,.986-1.572c2.941-3.544,6.553,2.378,9.286,3.556,5.922,2.547,11.715-1.848,15.169-6.294,2.941-3.775,7-8.886,7.167-14.036a7.362,7.362,0,0,0-1.448-6.378,4.585,4.585,0,0,0-4.451-1.86,7.218,7.218,0,0,0-6.226,2.395,17.637,17.637,0,0,0-2.462,3.4c-.969,1.685-3.443,7.032-5.776,3.234-1.876-3.054,1.059-6.857.918-10.047-.282-6.277-7.117-4.108-9.759-.851-2.006,2.474-2.553,5.843-4.7,8.238A5.623,5.623,0,0,1,305.813,563a3,3,0,0,1-1.967-.84c-.851-.958-.84-2.564-.761-3.758a20.3,20.3,0,0,1,2.834-8.018c4.914-8.785,14.019-14.391,23.576-16.9.017,0,.034-.017.051-.023a213.167,213.167,0,0,1,75.787,48.617,215.321,215.321,0,0,1,53.7,86.775,34.933,34.933,0,0,1-18.059,15.9,19.937,19.937,0,0,1-13.907.513c-4.677-1.595-9.145-4.04-13.6-6.153-4.429-2.1-8.847-4.215-13.281-6.305-2.885-1.364-5.6-2.265-8.508-.456-5.657,3.527-7.179,11.872-7.725,17.952-.857,9.607.451,19.564-3.713,28.579-.124.271.259.5.4.237,3.477-6.689,3.7-14.312,3.967-21.683a70.128,70.128,0,0,1,1.234-12.611c.2-.935.456-1.921.766-2.913a21.014,21.014,0,0,0-.423,4.6c.056,5.55.417,10.931-.428,16.465a65.157,65.157,0,0,1-5.088,16.961c-.1.208.208.4.316.186a59.237,59.237,0,0,0,6.491-26.151c.051-4.057-.738-8.317.175-12.329,1.273-5.59,6.2-6.993,11.36-5.967,13.788,2.744,22.556,18.634,37.984,15.163,9.855-2.214,16.583-10.329,22.607-17.828a.737.737,0,0,0-.558-1.189c.208-.338.406-.687.6-1.031q1.775,5.747,3.246,11.574a.836.836,0,0,0,1.612-.445c-8.272-34.113-25.661-65.769-49.118-91.8-23.553-26.134-53.372-46.723-86.516-58.663-34.879-12.565-73.01-15.062-109.416-8.492a218.789,218.789,0,0,0-76.3,29.171c-.434.028-.868.079-1.313.147-.355.056-.327.6-.039.7q-7.379,4.657-14.346,9.917a.583.583,0,0,0-.524.4q-3.972,3.026-7.8,6.249A179.7,179.7,0,0,0,71.3,632.086a180.211,180.211,0,0,1,20.3-34.93c20.888-28.106,49.524-50.155,82.493-62.14a308.656,308.656,0,0,1,31.481-9.286c10.548-2.609,21.147-5.218,31.859-7.072,21.97-3.8,44.064-1.826,65.656,3.33A222.647,222.647,0,0,1,464.352,672.8c1.381,4.406,2.637,8.852,3.849,13.309a.544.544,0,0,0,1.048-.287ZM126.616,623.792c-4.046,1.273-8.452,2.181-11.348,5.466a11.126,11.126,0,0,1,5.68-5.855c4.62-2.068,10.227-2.023,14.222-5.426a9.8,9.8,0,0,0,1.082-1.082A17.373,17.373,0,0,1,126.616,623.792Zm14.549-33.279a15.224,15.224,0,0,1-1.488,5.5A29.62,29.62,0,0,1,141.165,590.513Zm-4.423-17.907c1.944,1.206,4.22,4.6,2.113,6.452-.056-.135-.118-.271-.169-.428-.22-.67-.163-1.882-.361-2.643a6.98,6.98,0,0,0-1.268-2.547,8.838,8.838,0,0,0-1.516-1.488A12.377,12.377,0,0,1,136.742,572.605ZM234.6,705.4a18.543,18.543,0,0,0,4.637,2.615c-3.989-.851-7.877-1.82-9.128-6.283-.885-3.161-.806-6.993-.642-10.25a33.839,33.839,0,0,1,1.1-7.2,48.746,48.746,0,0,0-.637,10.289c.124,4.266,1.223,8.1,4.666,10.836Zm6.621-34.547a14.5,14.5,0,0,1,4.767-1.3c5.488-.5,10.83,1.91,16.155,3.55-6.655-1.386-14.222-4.2-20.922-2.243Zm95.379-8.48c6.621-.5,13.287-2.062,19.941-1.944,3.657.068,7.376,1.082,9.652,4.141a6.219,6.219,0,0,1,1.11,5.471c.045-3.116-2.333-6.373-5.86-7.827-8.356-3.454-16.775,1.916-25.2,1.612a12.774,12.774,0,0,1-7.675-2.958c2.288,1.414,5.488,1.7,8.035,1.516Zm-4.908-12.565c-2.823.642-5.742,2.6-6.007,5.578a8.6,8.6,0,0,1,0-1.144c.394-5,5.809-5.539,9.675-4.987,3.043.434,6.688,1.634,10.064,1.707-4.311.575-9.534-2.107-13.737-1.149Zm14.487-7.956c1.69.3,3.713.766,4.513,2.389-1.364-1.679-3.7-2.226-5.894-2.367-1.651-.107-3.268-.175-4.868-.271A29.3,29.3,0,0,1,346.18,641.851Zm-23.728-5.088c-.969-.53-1.927-1.1-2.857-1.7A6.537,6.537,0,0,1,322.452,636.763Zm-5.9,3.86c-.394-1.865-.727-4.457.794-5.347l1.775,13.405c.1.721.3,1.566.485,2.44-.039-.107-.073-.214-.107-.31a79.072,79.072,0,0,1-2.941-10.188Zm-4.074,11.315c1.3.535,1.859,2.124,2.553,3.527a11.15,11.15,0,0,1-1.319-1.161.663.663,0,0,0-.637-.169,3.071,3.071,0,0,0-1.6,1.042c.411-1.24.738-2.417,1-3.24Zm-7.731,8.266c2.581,2.214,4.367.394,5.618-2.214-.039.169-.079.344-.124.513-.6,2.5-2.682,4.733-5.178,2.384a4.623,4.623,0,0,1-1.009-1.448,3.956,3.956,0,0,0,.687.766Zm-2.97-18.014a19.5,19.5,0,0,1,1.741,11.6c-.085.682-.18,1.386-.22,2.091-.062-.772-.1-1.533-.146-2.214-.361-4.361-.862-9.072-2.462-13.27a15.311,15.311,0,0,1,1.088,1.8Zm-33.617,11.484a75.3,75.3,0,0,1,6.271-13.771c2.5-4.249,5.528-9.342,10.993-9.669a13.416,13.416,0,0,1,9.59,3.758,15.948,15.948,0,0,0-10.413-1.009c-4.333,1.1-7.584,4.277-9.844,8.007-2.755,4.542-4.051,9.737-6.373,14.481a31.325,31.325,0,0,1-2.851,4.744,40.225,40.225,0,0,0,2.631-6.536Zm-23.029,8.345a16.125,16.125,0,0,1-4.885-11.067,18.478,18.478,0,0,1,1.7-8.441c-.045.265-.09.535-.124.8-.772,5.562-.1,13.366,3.308,18.707Zm17.434-35.471c-1.786,3.037-5.494,3.533-9.055,4.164,3.877-2.085,8.492-4,9.827-8.3A6.527,6.527,0,0,1,262.566,626.547Zm-4.62-19.44c.034.169.079.338.118.513-1.482-2.327-3.144-4.925-3.319-7.753-.18-2.947,1.476-5.071,3.73-6.5-2.276,3.8-1.352,9.861-.53,13.749Zm24.308-18.347c1.871,0,3.725.056,5.545.169.654.039,1.307.107,1.961.186-2.5-.147-5-.282-7.5-.349Zm36.147-6.818c-2.243-1.51-4.023-4.682-7.179-4.018a3.658,3.658,0,0,0-1.189.479,2.687,2.687,0,0,1,2.682-.862c2.536.811,4.018,3.443,6.373,4.62a9.872,9.872,0,0,0,6.086.744,7.788,7.788,0,0,1-6.767-.958Zm6.345-15.693c2.8-1.769,3.5-6.04,6-8.283a7.776,7.776,0,0,1,1.662-1.161,11.2,11.2,0,0,0-2.4,2.755c-1.341,2.181-3.437,7.579-6.8,7.218A3.332,3.332,0,0,0,324.746,566.249Zm-13.822-7.855a17.092,17.092,0,0,1,2.992-5,7.407,7.407,0,0,1,3.167-2.045,1.522,1.522,0,0,1,1.792.366c-3.449.755-5.466,4.164-7.517,6.852-.721.941-1.448,2.226-2.338,3.184a22.238,22.238,0,0,0,1.91-3.347Zm-7.99-4.5c-.794,2.186-1.64,6.852-.113,9.269a5.9,5.9,0,0,1-3.409-6.446c.682-4.328,4.626-7.635,7.613-10.537.18-.175.366-.349.552-.524a29.167,29.167,0,0,0-4.643,8.244Zm133.228,135.82c-8.407,1.674-15.422-2.964-22.021-7.5-5.466-3.758-11.365-7.894-18.268-7.979-3.691-.045-6.125,1.358-7.635,3.584a11.531,11.531,0,0,1,3.956-4.5c2.924-1.8,5.629-.366,8.368.941q3.44,1.64,6.874,3.291,6.627,3.178,13.242,6.367c3.471,1.668,7.015,3.353,10.892,3.77,3.86.417,7.793-.676,11.331-2.152a34.961,34.961,0,0,0,8.644-5.206c-4.282,4.435-9.213,8.159-15.383,9.387ZM328.713,533.185a36.763,36.763,0,0,0-11.27,4.125,51.4,51.4,0,0,1,8.8-5C327.067,532.6,327.89,532.886,328.713,533.185ZM166.9,560.987c-.625,1.443-1.02,3.375-2.231,4.491-3.415,3.15-6.029-1.983-7.139-4.344-.259-.547-.547-1.071-.851-1.578a12.426,12.426,0,0,0,2.491,1.764c2.113,1.093,4.53,1.476,6.6.09.727-.49,1.1-.952,1.544-1.285-.147.276-.282.564-.406.857Zm5.59-1.916a20.257,20.257,0,0,1-2.074-.625c1.285-.355,2.592.265,3.9.654A5.7,5.7,0,0,1,172.489,559.071Zm8.813-5.607c.039,2.338-.772,4.074-2.648,4.744a8.517,8.517,0,0,0,1.933-4.04,13.443,13.443,0,0,1,.84-2.964,11.976,11.976,0,0,0-.124,2.26Zm6.97-20.86c.062-.023.124-.039.186-.062a6.745,6.745,0,0,0,.485,3.956c.366.9.8,1.741,1.149,2.586-1.116-1.9-2.874-4.435-1.775-6.046a.34.34,0,0,0-.045-.44Zm-.811.27c-1.009,1.459-.1,3.234.62,4.761,1.059,2.276,2.395,5.066,1.82,7.162a6.6,6.6,0,0,1-4.063,2.857c-1.612.31-3.353.445-4.666,1.51-2.479,2.006-1.144,5.64-3.155,7.956a5.863,5.863,0,0,1-1.747,1.364c-1.893-.18-3.606-1.352-5.545-1.116a3.683,3.683,0,0,0-1.961.84,5,5,0,0,0-2.62,1.195c-2.26,1.459-3.8,2.1-6.322.794-2.71-1.392-4.446-3.978-6.812-5.821a10.355,10.355,0,0,0-2.817-1.657c-.8-.282-3.088-.22-4.1-.614a214.944,214.944,0,0,1,41.365-19.232Z" transform="translate(-55.629 -515.532)" fill="#1d78ec"/>
        <path id="Path_108045" data-name="Path 108045" d="M247.833,799.425a1027.618,1027.618,0,0,1-104.254-83.963c-1.161-1.065-2.908.665-1.736,1.735,1.572,1.443,3.155,2.874,4.733,4.3-2.5-1.713-5.066-3.341-7.708-4.846-1.155-.659-2.479.935-1.454,1.882q2.806,2.578,5.629,5.133a37.229,37.229,0,0,0-10.729-4.654c-1.037-.253-2.119,1.189-1.138,1.961.563.44,1.121.879,1.685,1.319a7.062,7.062,0,0,0-5.111-.671,2.929,2.929,0,0,0-.671,2.908q2.409,2.451,4.857,4.84a1.156,1.156,0,0,0-1.64,1.026,10.313,10.313,0,0,0,1.555,5.2c-2.468-1.335-4.975-2.609-7.539-3.8a1.117,1.117,0,0,0-1.347,1.747c.085.085.169.169.248.254a1.171,1.171,0,0,0-.349,1.809c3.657,4.046,7.511,7.866,11.506,11.529q-4.987-3.694-10-7.353c-1-.727-2.186.862-1.307,1.7q8.883,8.393,18.228,16.234-11.377-8.537-22.759-17.079c-.941-.7-2.169.879-1.268,1.64L161.221,779.4l-9.7-7.37c-13.1-9.951-25.971-20.4-39.973-29.07-.958-.592-2.074.806-1.217,1.578q4.97,4.5,10.013,8.9-2.012-1.513-4.029-3.02c-2.429-1.809-4.93-3.55-8.092-3.133-.716.1-1.442,1.076-.693,1.668q3.9,3.085,7.821,6.153c-3.341-2-6.745-3.9-10.233-5.663a.963.963,0,0,0-.969,1.662q4.961,3.77,9.923,7.545a145.46,145.46,0,0,0-13.433-7.866.958.958,0,0,0-.969,1.651q16.727,12.839,33.465,25.678-19.381-13.439-38.756-26.878c-.856-.591-1.933.778-1.121,1.454q13.481,11.258,27.509,21.812L92.472,756.251c-1.02-.654-1.854.9-.93,1.589l22.533,16.854-27.25-18.561c-.851-.58-1.927.783-1.11,1.437q11.926,9.568,23.858,19.136L84.916,759.283c-.856-.6-1.843.727-1.1,1.431,4.327,4.175,8.858,8.108,13.523,11.878q-7.683-5.063-15.36-10.126c-.969-.637-1.752.845-.885,1.516l19.947,15.366Q92.568,773.9,84.1,768.462c-.761-.49-1.707.688-.986,1.273q7.81,6.39,16.211,11.963a106.981,106.981,0,0,1-12.363-7c-.716-.473-1.628.671-.935,1.212q2.73,2.113,5.46,4.232-2.857-1.361-5.832-2.479c-.727-.27-1.206.744-.721,1.245A40.527,40.527,0,0,0,96,787.023c.84.423,1.583-.839.738-1.268a39.418,39.418,0,0,1-7.81-5.161,71.611,71.611,0,0,1,11.044,6.114c.7.473,1.6-.659.918-1.189q-2.333-1.817-4.666-3.629a108.814,108.814,0,0,0,11.692,5.173.727.727,0,0,0,.964-.682q3.913,2.527,7.832,5.054c.789.507,1.786-.732,1.02-1.324q-8.5-6.576-17.011-13.146,12.18,8.055,24.365,16.1c.986.654,1.871-.907.918-1.572-9.635-6.762-19.277-13.563-28.388-21.012q17.7,12.509,35.4,25.018c.84.592,1.921-.783,1.11-1.437l-28.963-23.232,42.1,28.675c.992.676,1.854-.9.93-1.583q-17.225-12.881-34.445-25.768L155.9,799.352c1,.648,1.916-.941.93-1.595q-21.342-14.132-41.6-29.8,24.621,17.1,49.236,34.2c1.026.716,1.91-.918.964-1.645q-26.362-20.243-52.73-40.474c8.159,5.3,15.946,11.213,23.8,16.921q18.848,13.7,37.7,27.4c1.009.732,1.933-.924.969-1.657Q145.7,780.289,116.222,757.88c8.638,5.291,16.87,11.23,24.99,17.3.6.451,1.2.9,1.8,1.347q17.885,13.676,35.972,27.081c1.009.744,1.967-.935.98-1.679Q162.746,788.961,145.523,776q-17-12.991-33.8-26.23c2.485,1.026,4.733,3.178,6.728,4.677q4.463,3.347,8.925,6.688,9.593,7.193,19.192,14.386l2.9,2.175q17.149,13.608,35.037,26.264c1.054.744,2-.964,1-1.713q-17.023-12.754-34.051-25.5-14.749-11.681-28.934-24.06c9.534,6.745,18.7,14.042,27.977,21.091l40.891,31.087c.918.7,2.119-.857,1.234-1.6q-23.252-19.643-46.487-39.3,6.965,5.232,13.94,10.458c13.664,10.233,27.436,20.336,41.911,29.4,1.178.738,2.164-1.054,1.071-1.837-.293-.209-.586-.423-.873-.631a.984.984,0,0,0-.163-1.3c-4.181-4.209-8.565-8.182-13.073-12.008q10.421,6.863,21.266,13.067a1.113,1.113,0,0,0,1.121-1.922c-16.955-10.745-32.31-23.655-47.856-36.3q3.8,2.882,7.618,5.747,25.821,19.44,52.358,37.9c1.054.732,2.412-.992,1.386-1.8q-17.386-13.591-34.783-27.165c12.932,9.444,26.111,18.555,39.263,27.638,1.223.845,2.293-1.1,1.149-1.966q-2.037-1.53-4.068-3.054,3.3,1.978,6.655,3.86a1.162,1.162,0,0,0,1.172-2.006q-27.385-19.955-54.77-39.917c-3.781-2.755-7.635-5.483-11.495-8.216-5.629-4.632-11.258-9.269-16.932-13.828-6-4.823-12.07-9.556-18.251-14.143q-1.023-1.014-2.029-2.051c2.158.642,4.17,2.626,5.793,3.854q3.127,2.358,6.249,4.722,6.694,5.063,13.383,10.12,13.16,9.948,26.326,19.9,26.548,20.065,53.091,40.131c1.042.789,2.44-1.009,1.4-1.82l-.7-.547q3.694,2.223,7.438,4.361a1.19,1.19,0,0,0,1.437-1.859c-2.068-2.164-4.237-4.215-6.48-6.193q3.947,2.493,7.917,4.959c1.347.834,2.485-1.211,1.223-2.1ZM208.12,773.049c-1.944-1.414-3.882-2.851-5.8-4.3-4.587-3.471-9-7.122-13.326-10.864q9.475,7.691,19.124,15.169Zm-40.959-31.47q-2.612-2.2-5.207-4.418-5.088-4.353-10.1-8.8C157.159,732.512,162.2,737,167.161,741.578ZM138.716,723.93c5.539,2.806,10.379,6.931,15.056,11.067q3.051,2.7,6.052,5.443Zm45.146,64.163c-14.2-10.391-28.213-21.029-41.635-32.383Q163.306,771.567,183.862,788.093Zm-42.03-39.409c13.557,10.1,26.421,21.13,39.669,31.65A393.128,393.128,0,0,1,141.832,748.684Zm-11.4-10.779c-.394-.389-.794-.778-1.195-1.166q3.457,1.817,6.807,3.8c2.243,2.186,4.592,4.271,6.987,6.294-4.13-3.077-8.323-6.069-12.6-8.931ZM151.9,751.112c-.451-.355-.89-.71-1.341-1.065,7.432,5.28,14.622,10.926,21.8,16.538q2.595,2.028,5.184,4.051c-.6-.445-1.195-.885-1.786-1.324C167.752,763.317,159.762,757.294,151.9,751.112Zm5.364,1.065a233.644,233.644,0,0,0-20.054-13.54,15.923,15.923,0,0,1-4.108-5.561q7.387,5.545,14.78,11.083,4.64,4.074,9.388,8.018Zm28.867,8.841q-5.528-4.809-10.931-9.754,21.959,17.885,45.084,34.282c5.161,3.663,10.312,7.353,15.158,11.4q-10.489-6.39-20.55-13.439-14.377-11.25-28.754-22.494Z" transform="translate(-66.58 -602.661)" fill="#1d78ec"/>
        <path id="Path_108046" data-name="Path 108046" d="M397.343,569.332c-.079-.231-1.042-2.592-1.11-2.586a1.1,1.1,0,0,0-.355-1.482c-.011-.011-.028-.017-.039-.028a1.113,1.113,0,0,0-1.5.394,2.625,2.625,0,0,0,.017,2.169c-.761-.231-1.533-.44-2.316-.62-.856-.2-1.814.778-1.234,1.606.372.53.755,1.042,1.149,1.544-.451-.124-.907-.242-1.381-.344a1.094,1.094,0,0,0-1.054,1.814c.338.411.671.823,1.009,1.234-.58-.2-1.172-.372-1.781-.524a1.084,1.084,0,0,0-1.211,1.578c.3.462.62.9.952,1.307-.383-.113-.761-.22-1.144-.332-1.121-.327-1.64,1-1.037,1.781.18.237.366.468.547.7-.749-.265-1.5-.524-2.243-.789-1.1-.389-1.617,1.031-1.031,1.769.051.062.1.13.152.192-2.66-1.668-5.257-3.432-7.8-5.269a1.193,1.193,0,0,0,.316-1.679c-.845-1.071-1.7-2.136-2.541-3.206a3.952,3.952,0,0,1,.975.411,1.042,1.042,0,0,0,1.414-1.414c-.282-.6-.564-1.206-.851-1.8.485-.237.975-.473,1.459-.7,1.217-.586.152-2.406-1.059-1.814l-2.3,1.133a1.06,1.06,0,0,0-.372,1.426c.107.225.22.456.327.682a7.28,7.28,0,0,0-1.955.1c-.84.152-.885,1.178-.451,1.713l1.166,1.454a11.855,11.855,0,0,0-2.079-.3.988.988,0,0,0-.845,1.476,11.244,11.244,0,0,0,5.2,4.908.71.71,0,0,0,.248.068c.541.535,1.087,1.071,1.628,1.6q-4.065-2.738-7.9-5.838a1.03,1.03,0,0,0-1.612,1.24c.124.214.259.417.389.625a1.064,1.064,0,0,0-1.324.738,2.55,2.55,0,0,0,.293,1.843c-1.127-.53-2.26-1.048-3.409-1.538a.58.58,0,0,0-.631.09q-6.348-5.114-12.633-10.3c1.065.648,2.158,1.268,3.285,1.843a1.1,1.1,0,0,0,1.324-1.713q-6.508-6.77-13.185-13.383,5.4,4.42,10.8,8.835c1.076.879,2.581-.535,1.555-1.555L339.845,545.08l13.676,10.633c1.093.851,2.6-.524,1.566-1.566q-6.686-6.7-13.383-13.4c3.229,2.541,6.3,5.28,9.331,8.069q1.082,1.023,2.181,2.017c1.059.958,2.626-.6,1.572-1.572-.71-.659-1.426-1.324-2.141-1.978q-4.378-4.125-8.4-8.587a137.375,137.375,0,0,1,12.284,9.7,1.116,1.116,0,0,0,1.578-1.578l-2.012-2.13,2.891,2.209c.89.682,2.147-.642,1.533-1.533-1.087-1.566-2.226-3.088-3.4-4.581,2.1,1.555,4.158,3.167,6.164,4.857a1.14,1.14,0,0,0,1.612-1.611c-.93-1.037-1.859-2.068-2.789-3.1a62.462,62.462,0,0,1,5.2,4.125,1.168,1.168,0,0,0,1.826-1.409,28.153,28.153,0,0,0-1.983-3.82c.856.473,1.724.941,2.6,1.386a1.349,1.349,0,0,0,1.752-.665l.856.4a1.193,1.193,0,0,0,1.437-1.865l-1.623-1.978a1.066,1.066,0,0,0-1.82.3c-.366-.169-.732-.338-1.1-.513a1.427,1.427,0,0,0-1.662.479q-2.434-1.369-4.8-2.891c-1.127-.733-2.355.913-1.42,1.843a26.515,26.515,0,0,1,2.761,3.223,65.373,65.373,0,0,0-7.7-4.852,1.153,1.153,0,0,0-1.392,1.8c.028.034.056.062.085.1-1.251-.862-2.519-1.713-3.8-2.536-1.1-.7-2.214.856-1.364,1.764,1.268,1.358,2.485,2.755,3.668,4.181l-7.229-5.522c-1.037-.795-2.192.868-1.352,1.752l.823.868q-3.457-2.443-7.06-4.688c-1.15-.71-2.1.823-1.347,1.747.468.575.941,1.144,1.414,1.713-1.8-1.245-3.646-2.423-5.567-3.5a1.115,1.115,0,0,0-1.347,1.741q4.556,4.564,9.111,9.123l-13.721-10.667c-1.087-.845-2.6.524-1.561,1.561l10.283,10.278q-7.92-6.466-15.834-12.937c-1.065-.873-2.6.575-1.544,1.544q14.056,12.906,27.43,26.517c-11.579-8.542-20.319-20.781-32.9-28.151a.62.62,0,0,0-.625,1.071c7.787,4.9,14.019,11.67,20.46,18.172q-10.286-8.816-20.387-17.851c-1.11-.992-2.755.642-1.64,1.64q9.5,8.5,19.169,16.809-11.588-8.883-23-18c-1.144-.913-2.784.676-1.634,1.634q9.5,7.886,18.995,15.766-12.729-9.61-25.452-19.22c-1.031-.783-2.389.969-1.392,1.8q8.021,6.745,16.042,13.484-10.227-8-20.454-16c-1.121-.879-2.727.682-1.595,1.595,18.967,15.253,37.939,30.552,55.694,47.208q-3.347-2.324-6.66-4.7c-16.121-15.276-32.856-29.909-51.7-41.776a1.159,1.159,0,0,0-1.4,1.814q3.186,2.9,6.424,5.753-3.093-2.451-6.181-4.9c-1.155-.913-2.738.547-1.657,1.657,1.848,1.893,3.719,3.758,5.6,5.618q-4.514-3.5-9.021-6.993c-1.133-.879-2.75.7-1.6,1.6q21.2,16.549,41.579,34.118-22.846-17.445-45.709-34.873c-1.031-.789-2.209.873-1.352,1.752q3.017,3.11,6.1,6.136-3.947-2.848-7.889-5.7c-1.037-.749-2.333.935-1.369,1.775q3.33,2.908,6.683,5.787-6.593-4.767-13.225-9.472c-1.178-.834-2.282,1.1-1.127,1.927,18.031,12.926,36.136,26,52.189,41.325q-10.43-8.334-20.871-16.668-8.452-6.745-16.91-13.5c-5.342-4.26-10.734-8.469-16.746-11.754-1.071-.586-2.293.856-1.341,1.735q4.936,4.547,9.917,9.044c-4.553-3.206-9.162-6.339-13.85-9.354-1.1-.71-2.3.89-1.392,1.8q4.852,4.835,9.878,9.489-6.753-4.928-13.614-9.7c-1.076-.749-2.367.935-1.4,1.814Q267.18,558.2,283.6,573.141q-14.183-11.224-28.36-22.455a1.148,1.148,0,0,0-1.623,1.623c.254.315.513.625.766.941q-1.175-.93-2.338-1.854c-.913-.727-2.615.231-1.786,1.381a101.231,101.231,0,0,0,13.862,15.344q-7.049-5.756-14.1-11.506c-1.11-.907-2.643.535-1.6,1.6l.6.62c-.186-.135-.372-.276-.558-.417-1.048-.772-2.338.93-1.386,1.8q14.5,13.3,28.991,26.6-15.755-13.168-31.515-26.337c-1.1-.924-2.682.586-1.606,1.606q25.61,24.1,52.313,46.971c-1.8-1.319-3.612-2.631-5.409-3.956q-22.449-19.93-45.472-39.19c-.924-.772-2.524.214-1.781,1.375a62.357,62.357,0,0,0,7.567,9.438q-4.42-3.668-8.83-7.342a1.14,1.14,0,0,0-1.612,1.612c1.048,1.161,2.113,2.31,3.172,3.46l-7.782-6.17c-1.1-.868-2.671.609-1.578,1.578q19.9,17.5,39.781,35.02-4.514-3.617-9.055-7.2c-4.113-3.713-8.182-7.483-12.244-11.253-5.116-4.745-10.441-9.3-16.825-12.256a1.2,1.2,0,0,0-1.307.2c-1.488-1.11-2.969-2.226-4.463-3.33-1.076-.8-2.136.857-1.358,1.758.947,1.1,1.916,2.181,2.874,3.268q-2.037-1.665-4.08-3.319a1.092,1.092,0,0,0-1.544,1.544q7.582,8.342,15.6,16.267-9.171-7.759-18.459-15.394a1.1,1.1,0,0,0-1.561,1.561q6.5,7.184,13.433,13.935-9.728-8.215-19.31-16.606a.617.617,0,0,0-.535-.146h0a1.1,1.1,0,0,0,.727-1.634,48.846,48.846,0,0,0-3.77-6.041,1.121,1.121,0,0,0-.068-1.882c-.935-.541-1.876-1.082-2.812-1.623a1.139,1.139,0,0,0-1.375,1.781c.828.958,1.612,1.95,2.355,2.958q-2.595-2.155-5.19-4.316a1.14,1.14,0,0,0-1.612,1.612c2.586,2.975,5.263,5.843,8.018,8.633l-9.911-8.627c-1.121-.98-2.767.637-1.651,1.651q26.092,23.6,52.178,47.2-27.7-23.041-55.407-46.075c-1.133-.941-2.71.558-1.645,1.645q2.536,2.578,5.105,5.116-3.567-2.772-7.212-5.443c-.856-.625-2.136.631-1.488,1.488a105.5,105.5,0,0,0,13.123,14.1,1.16,1.16,0,0,0-1.009,1.916q1.479,1.623,2.992,3.212c-.062-.051-.124-.1-.186-.158a1.084,1.084,0,0,0-1.533,1.533c25.182,27.16,56.7,47.326,83.158,73.072-6.283-4.728-12.4-9.664-18.437-14.7q-2.477-2.121-4.987-4.2-5.866-4.97-11.675-9.985L206.2,595.669a1.092,1.092,0,0,0-1.544,1.544c2.9,3.184,5.917,6.238,9.016,9.207q-3.33-2.823-6.666-5.646a1.108,1.108,0,0,0-1.566,1.566,162.828,162.828,0,0,0,14.4,15.158q-7.776-6.474-15.586-12.915c-1.071-.885-2.62.6-1.55,1.55q38.55,34.087,77.974,67.178a84.405,84.405,0,0,1-9.264-5.505L204.775,608.1c-1.014-.907-2.5.552-1.5,1.5,14.3,13.58,28.6,27.165,43.269,40.35,2.992,2.688,6,5.415,9.066,8.086q-5.536-4.387-10.982-8.9c-13.585-13.185-27.03-26.54-42.075-38.074h0c-.068-.056-.141-.107-.208-.164-.947-.721-2.068.817-1.251,1.623q14.174,14.014,29.182,27.131-14.031-11.5-28.067-23.007a1.037,1.037,0,0,0-1.465,1.465q3.575,3.837,7.263,7.556-2.443-2.181-4.891-4.356a1.053,1.053,0,0,0-1.488,1.487q3.66,4.319,7.455,8.508c-2.727-2.107-5.505-4.147-8.385-6.046-.986-.648-2.012.783-1.234,1.595.631.659,1.273,1.307,1.91,1.961-.609-.58-1.217-1.155-1.82-1.736a1.029,1.029,0,0,0-1.454,1.454,307.846,307.846,0,0,0,45.957,43.731q-3.888-2.815-7.708-5.7-19.651-16.887-38.931-34.2a1.057,1.057,0,0,0-1.493,1.493A319.347,319.347,0,0,0,235.4,668.515q8.089,6.939,16.245,13.811-30.639-23.564-59.74-49.034c-.687-.6-1.7.389-1.009,1.009a1016.272,1016.272,0,0,0,91.17,73.229c.964.687,2.2-.9,1.273-1.651q-13.811-11.224-27.424-22.68c8.818,6.035,17.766,11.872,26.726,17.643,1.15.738,2.074-1,1.042-1.786q-2.367-1.8-4.722-3.617a1.062,1.062,0,0,0,.693-1.775,71.971,71.971,0,0,0-6.012-5.793c2.192,1.5,4.4,3,6.615,4.457.975.642,2.192-.885,1.268-1.64q-3.364-2.772-6.734-5.533c2.152,1.313,4.35,2.547,6.615,3.651,1,.485,2.276-.868,1.279-1.657C259.64,668.966,236.543,650.686,215.5,630.2q23.6,19.33,47.191,38.66c6.4,5.725,12.988,11.23,19.941,16.324.924.676,2.124-.862,1.234-1.595q-10.3-8.444-20.6-16.887l-.456-.406q10.4,7.97,21.113,15.518c.975.687,2.164-.857,1.273-1.651q-2.806-2.51-5.607-5.021a67.549,67.549,0,0,0,9.28,3.939,1.079,1.079,0,0,0,1.042-1.792q-2.2-1.918-4.406-3.837a166.391,166.391,0,0,0-16.313-17.079L292.53,676.15a1.1,1.1,0,0,0,1.555-1.555c-2.254-2.761-4.6-5.426-7.021-8.013q4.581,3.423,9.292,6.677c1.054.727,2.13-.834,1.319-1.707-5.009-5.409-10.272-10.543-15.7-15.5q7.556,6.313,15.107,12.633a1.088,1.088,0,0,0,1.538-1.538c-3.189-3.448-6.5-6.762-9.883-9.979q3.186,2.147,6.474,4.175c1.014.626,2.254-.89,1.3-1.685q-2.806-2.35-5.6-4.7,1.3.854,2.609,1.685c1.059.671,2.344-.93,1.358-1.764-25.728-21.694-51.986-42.982-76.723-65.859l74.666,62.106c1.138.947,2.778-.631,1.651-1.651q-1.961-1.775-3.916-3.544c.727.631,1.448,1.262,2.175,1.893a1.16,1.16,0,0,0,1.64-1.64,177,177,0,0,0-14.346-15.805q8.418,6.424,16.955,12.7c1,.738,2.231-.885,1.33-1.724q-4.125-3.812-8.272-7.6,4.733,2.874,9.573,5.584a1.057,1.057,0,0,0,1.065-1.826A430.167,430.167,0,0,1,238.335,584.9c1.082.879,2.164,1.764,3.246,2.643a342.7,342.7,0,0,0,61.5,50.1c1.031.654,2.3-.924,1.33-1.719q-30.487-24.824-60.968-49.659-3.22-3.3-6.35-6.694c.806.6,1.606,1.211,2.412,1.82A447.7,447.7,0,0,0,291.7,623.82q7.2,5.722,14.56,11.253c1.014.761,2.327-.935,1.364-1.764l-1.319-1.116a.987.987,0,0,0-.152-1.33q-6.584-5.79-13.157-11.585,9.94,7.337,20.381,13.98c1.071.682,2.406-.975,1.381-1.792q-9.6-7.615-19.209-15.231,9.272,7.117,18.736,13.985c1.048.755,2.316-.918,1.375-1.781q-4.8-4.412-9.63-8.785,5.553,3.972,11.134,7.9c1.026.721,2.333-.947,1.352-1.753q-16.313-13.447-32.225-27.391,13.464,11.275,26.934,22.539c1.133.947,2.761-.62,1.645-1.645q-8.638-7.92-17.276-15.834c3.792,2.812,7.669,5.511,11.675,8.058a1.141,1.141,0,0,0,1.375-1.786q-3.761-3.457-7.562-6.863,1.792,1.462,3.578,2.924a1.132,1.132,0,0,0,1.6-1.6,121.876,121.876,0,0,0-13.738-13.659q7.32,5.054,15.09,9.432c1.087.609,2.44-.964,1.386-1.8l-47.129-37.358c-.361-.389-.71-.789-1.065-1.183l45.444,35.995c1.133.9,2.75-.609,1.628-1.628l-25.841-23.525q4.116,3.457,8.227,6.908l13.687,11.489c2.817,2.361,6.5,6.97,10.6,5.184a1.161,1.161,0,0,0,.231-1.815c-2.231-1.978-4.485-3.939-6.739-5.888q3.913,2.628,7.889,5.167c1.02.648,1.933-.947.941-1.606q-10.5-6.965-20.561-14.549c4.316,3.048,8.74,5.962,13.14,8.852a.921.921,0,0,0,.693.141q4.1,3.077,8.238,6.091c1.02.738,2.338-.952,1.358-1.758-10.058-8.244-20.127-16.487-30.411-24.455q-8.782-7.649-17.428-15.445c1.561,1.206,3.11,2.434,4.654,3.668L295.477,566q16.93,13.532,33.859,27.052a1.124,1.124,0,0,0,1.589-1.589c-3.634-4.085-7.427-8-11.343-11.771q7.708,6.026,15.518,11.929c1.02.772,2.384-.986,1.375-1.781-2.074-1.64-4.158-3.263-6.238-4.891q6.009,4.184,12.188,8.137a1.117,1.117,0,0,0,1.347-1.747c-1.735-1.623-3.5-3.195-5.308-4.733q3.854,2.941,7.7,5.883c1.037.789,2.344-.93,1.392-1.8q-3.846-3.5-7.72-6.959,5.071,3.685,10.244,7.229c1.026.7,2.338-.969,1.341-1.741q-19.3-14.918-38.564-29.87-4.116-3.584-8.137-7.269,25.323,20.066,50.656,40.12c1.121.89,2.7-.563,1.617-1.617q-2.831-2.764-5.674-5.522c1.955,1.324,3.911,2.637,5.883,3.933,1.1.721,2.3-.9,1.386-1.8Q351.34,580,343.784,573.147L360.8,586.473c1.133.885,2.761-.648,1.617-1.617q-14.91-12.653-29.87-25.249,15.214,11.495,30.428,22.984c1.037.783,2.4-.975,1.4-1.809q-5.891-4.885-11.777-9.776,5.477,4.023,11,8c.879.631,1.972-.468,1.741-1.33,5.607,3.443,11.529,6.452,17.3,9.573.969.524,2.181-.845,1.24-1.606-.079-.062-.158-.13-.237-.192.344.146.687.3,1.037.451,1.02.434,2.2-.744,1.273-1.651-.062-.062-.13-.124-.192-.192a.9.9,0,0,0-.518-.975c-.372-.2-.744-.417-1.11-.625-.89-.879-1.786-1.758-2.677-2.631,2.012,1.3,4.057,2.553,6.142,3.747,1.1.637,1.983-.761,1.279-1.657-.5-.631-1-1.262-1.5-1.888.727.259,1.454.513,2.181.772,1.121.394,1.606-1.037,1.031-1.775-.248-.321-.5-.637-.744-.958.834.242,1.668.485,2.5.732a1.074,1.074,0,0,0,.823-1.955,13.642,13.642,0,0,1-1.189-.857c.541.248,1.082.513,1.612.811a1.084,1.084,0,0,0,1.307-1.7q-.8-.989-1.612-1.978c.6.231,1.189.485,1.775.778a1.092,1.092,0,0,0,1.319-1.707c-.631-.637-1.228-1.29-1.8-1.961.451.152.907.31,1.358.484a1.1,1.1,0,0,0,1.347-1.347Zm-86.865-3.939q-7.328-5.291-14.65-10.582-2.874-2.578-5.685-5.218l25.8,19.727q-2.738-1.961-5.466-3.927ZM258.192,678.46c4.508,3.347,9.083,6.615,13.349,10.244q-2.891-1.792-5.742-3.651-7.421-5.925-14.729-12c2.361,1.82,4.728,3.629,7.122,5.4Zm-36.113-27.8q8.562,7.674,17.3,15.146Q230.458,658.558,222.079,650.664ZM239.767,661.5q-15.527-12.864-29.881-27.052c3.189,2.524,6.317,5.128,9.455,7.714q10.083,10.295,20.956,19.767c-.175-.146-.355-.287-.53-.434Zm-4.13-8.587q-7.235-5.95-14.476-11.895c-1.961-1.995-3.888-4.018-5.8-6.057Q225.474,643.962,235.636,652.912ZM248.4,641.457c7.083,5.725,14.1,11.512,20.713,17.716Q258.784,650.272,248.4,641.457Zm-27.734-26.275,28.106,23.813C239.2,631.269,229.568,623.612,220.665,615.182Zm21.891,15.665c7,5.528,14.042,11.01,20.882,16.713q1.386,1.175,2.784,2.338c5.15,4.373,10.16,8.9,14.943,13.67Q261.86,647.2,242.556,630.847Zm-10.644-16.724q4.463,3.727,8.92,7.455Q236.343,617.884,231.912,614.123ZM274.719,644.1c-4.581-3.651-9.055-7.443-13.473-11.3Q267.983,638.451,274.719,644.1Zm-50.363-40.052q-5.468-4.759-10.672-9.8c10.39,8.029,20.184,16.808,29.937,25.638C237.09,614.731,230.621,609.508,224.355,604.048Zm7.094.969q-7.86-6.593-15.715-13.191A202.2,202.2,0,0,1,199,576.663c11.3,8.886,21.919,18.566,32.445,28.354ZM280.686,634.2Q263.1,618.9,245.514,603.591c9.81,7.906,19.632,15.811,28.822,24.415Q277.581,631.041,280.686,634.2Zm-16.228-20.539A311.579,311.579,0,0,1,236.814,589.9Q250.768,601.636,264.458,613.666Zm14.228,4.046q-6.136-4.759-12.036-9.8l12.036,9.8ZM251.38,574.73q8.427,7.125,16.775,14.346A124.126,124.126,0,0,1,251.38,574.73Zm5.55,10.819q-1-.972-1.989-1.955,6.863,5.68,13.777,11.3Q262.827,590.223,256.93,585.549Zm15.028,9.072c1.234.907,2.462,1.814,3.674,2.722q6.356,4.759,12.757,9.455,4.167,3.7,8.317,7.421Q284.2,604.6,271.958,594.621Zm18.69-9.737q-4.868-3.618-9.506-7.539Q285.893,581.114,290.648,584.884Zm3.358,12.943c-4.975-3.916-9.782-8.035-14.481-12.284Q286.845,591.595,294.007,597.827Zm-23.322-26.844a134.041,134.041,0,0,1-11.963-11.427q1.767,1.4,3.533,2.8,4.074,4.446,8.43,8.621Zm41.4,20.144a24.94,24.94,0,0,1-2.519-2.2Zm-6.925-5.984-2.637-2.214q-2.764-2.324-5.533-4.643,4.116,3.4,8.176,6.857Zm-30.411-30.585a94.614,94.614,0,0,0,8.678,8.971q-8.452-7.015-16.5-14.5,3.947,2.721,7.827,5.533Zm29.707-8.047c6.024,4.542,11.861,9.326,17.558,14.273Q313.1,553.819,304.459,546.511Z" transform="translate(-114.528 -522.035)" fill="#1d78ec"/>
        <path id="Path_108047" data-name="Path 108047" d="M523.889,761.543a4.9,4.9,0,0,0-3.516-2.665,1.2,1.2,0,0,0-1.144.4c-1.172-.834-2.35-1.668-3.522-2.507-.9-.642-2.175.637-1.533,1.533l1.685,2.378-4.643-3.155a1.115,1.115,0,0,0-1.516,1.516c.451.67.913,1.33,1.386,1.983-1.313-.924-2.626-1.843-3.933-2.767-.879-.62-2.119.614-1.5,1.5.439.625.885,1.245,1.324,1.871-1.29-.879-2.575-1.764-3.865-2.643-1.059-.721-2.113.828-1.318,1.707.068.073.13.147.2.214-.518-.3-1.037-.614-1.561-.913-.89-.5-2.124.552-1.482,1.482l.783,1.133-4.288-2.615a1.03,1.03,0,0,0-1.561,1.037q-3.77-2.561-7.545-5.116a.941.941,0,0,0-1.375.3l-4.485-4.029c-.845-.761-2.429.265-1.673,1.29q1.023,1.395,2.074,2.767-1.243-1.065-2.491-2.13a1.044,1.044,0,0,0-1.657,1.217q-1.352-1.327-2.671-2.693a1.037,1.037,0,0,0-1.623,1.251c.682,1.279,1.409,2.513,2.192,3.713-.924-.671-1.843-1.341-2.767-2.006-.834-.6-1.876.552-1.386,1.369a.912.912,0,0,0-.687,1.55l.828.964c-1.51-.744-3-1.521-4.457-2.383a.577.577,0,0,0-.868.546c-2.66-2.857-5.409-5.623-8.272-8.272a1.063,1.063,0,0,0,.485-1.775c-.31-.31-.62-.614-.93-.924a1.11,1.11,0,0,0,.693-1.848q-1.7-1.927-3.392-3.854c.918.755,1.837,1.5,2.755,2.259s2.44-.2,1.736-1.341a50.3,50.3,0,0,0-3.7-5.212c1.206,1,2.395,2.017,3.556,3.082A1.135,1.135,0,0,0,460,738.389a30.928,30.928,0,0,0-3-4.311,1.2,1.2,0,0,0,.107-2.045,24.258,24.258,0,0,0-4.835-2.423c-.806-.3-1.55.58-1.443,1.319-1.228-.868-2.474-1.707-3.747-2.513-1.087-.693-2.237.862-1.358,1.758,1.8,1.837,3.578,3.68,5.268,5.6q-3.043-2.493-6.086-4.981a1.1,1.1,0,0,0-1.555,1.555c.716.811,1.437,1.623,2.152,2.44-.98-.71-1.972-1.409-2.992-2.062a1.088,1.088,0,0,0-1.313,1.7c.118.118.237.231.349.349-.107-.073-.22-.152-.327-.22a1.053,1.053,0,0,0-1.589.924c-.27-.186-.541-.378-.811-.563-1.031-.7-2.152.84-1.307,1.7q2.73,2.755,5.573,5.387a47.216,47.216,0,0,0-5.556-3.42c-.907-.473-2.079.518-1.471,1.471a28.058,28.058,0,0,0,3.133,4.006c-.947-.6-1.893-1.206-2.857-1.781-1.087-.654-2.023.778-1.285,1.668l.023.028c-.2-.135-.389-.271-.586-.406-1.031-.7-1.933.778-1.245,1.612,3.285,3.984,6.779,7.776,10.362,11.484q-5.5-3.939-11.01-7.872c-.794-.569-1.972.575-1.375,1.375a50.162,50.162,0,0,0,4.5,5.19c-.93-.693-1.854-1.4-2.761-2.13-.806-.648-2.209.175-1.55,1.195a45.348,45.348,0,0,0,3.488,4.688q-2.214-1.352-4.435-2.7a.979.979,0,0,0-1.33,1.33,20.463,20.463,0,0,0,1.33,2.169c-1.273-.721-2.541-1.443-3.815-2.158-.631-.355-1.673.254-1.352,1.037a16.116,16.116,0,0,0,1.6,2.992,27.1,27.1,0,0,0-3.679-.947c-.885-.163-1.273,1.144-.378,1.364a29,29,0,0,1,7,2.772c.851.468,1.882-.716,1.082-1.4a14.3,14.3,0,0,1-2.412-2.631q3.668,2.1,7.336,4.2a.95.95,0,0,0,.958-1.64,18.219,18.219,0,0,1-3.477-3.071q4.141,2.519,8.277,5.043c.924.563,2.085-.845,1.189-1.538a43.529,43.529,0,0,1-5.353-4.914,103.431,103.431,0,0,0,9.314,5.815c.947.524,2.136-.851,1.206-1.567-3.026-2.339-6.029-4.733-8.818-7.342q6.567,4.708,13.14,9.416c.952.682,2.034-.8,1.228-1.595-4.457-4.423-8.892-8.869-13.123-13.5.056.045.118.084.175.13,5.043,5.618,10.593,10.757,17.569,13.935.992.451,2.243-.806,1.268-1.64q-8.351-7.159-17.22-13.653c-.327-.366-.659-.733-.986-1.1a211.878,211.878,0,0,1,20.9,16.448c1.031.9,2.547-.6,1.51-1.51q-6.7-5.866-13.4-11.732c-2.75-2.412-5.781-4.75-8.407-7.4,9.247,6.491,16.544,15.648,26.782,20.781a1.084,1.084,0,0,0,1.307-1.7c-1.268-1.493-2.575-2.953-3.9-4.4a69.1,69.1,0,0,0,7.624,4.508.888.888,0,0,0,1.211-.349l1.488,1.189c.958.766,2.327-.547,1.369-1.369-.084-.073-.169-.152-.254-.225.552.4,1.1.806,1.651,1.206.986.721,1.961-.783,1.24-1.606-.231-.265-.462-.541-.687-.811,1.572,1.437,3.167,2.851,4.8,4.22a1.045,1.045,0,0,0,1.476-1.476c-.276-.349-.552-.7-.828-1.054,1.065.913,2.136,1.826,3.2,2.738a1.065,1.065,0,0,0,1.5-1.5c-.541-.625-1.071-1.256-1.606-1.888q2.4,2.155,4.806,4.316a1.072,1.072,0,0,0,1.516-1.516l-1.781-1.95,5.421,3.68c1,.676,1.865-.575,1.443-1.465q1.7,1.039,3.4,2.079c.885.541,2.107-.575,1.476-1.476-.276-.394-.547-.789-.823-1.183q2.189,1.4,4.311,2.919c.941.676,1.9-.552,1.488-1.437.456.31.913.625,1.364.935.879.6,2.113-.608,1.488-1.487-.389-.552-.778-1.1-1.166-1.651l5.33,3.758c1.059.749,2.153-.845,1.336-1.73-.789-.856-1.544-1.735-2.282-2.626q2.122,1.445,4.249,2.9c.9.614,2.169-.62,1.527-1.527-.479-.682-.964-1.364-1.442-2.045.721.513,1.442,1.031,2.169,1.544.817.58,1.769-.3,1.674-1.144a1.07,1.07,0,0,0,.208-1.324Zm-66.676-7.658c.192.147.383.3.58.445a.879.879,0,0,0,1.195-.09q2.316,2.282,4.536,4.654c-2.192-1.555-4.271-3.251-6.311-5.009Z" transform="translate(-215.702 -608.386)" fill="#1d78ec"/>
        <path id="Path_108048" data-name="Path 108048" d="M550.8,744.027l-.845-1.521a.815.815,0,0,0,.028-1.341,14.394,14.394,0,0,0-1.566-1.116,1.081,1.081,0,0,0-1.606,1.054c-.642-.451-1.285-.907-1.927-1.358a1.02,1.02,0,0,0-1.567.727,26.845,26.845,0,0,0-2.84-1.533c-.727-.332-1.859.2-1.628,1.1l-4.587-2.254c-1.054-.518-2.26.811-1.318,1.707.22.208.417.423.614.637a60.876,60.876,0,0,1-6.908-5.071c-1.059-.9-2.592.6-1.538,1.538a14.291,14.291,0,0,1,1.358,1.392c-.53-.473-1.065-.947-1.6-1.414a1.06,1.06,0,0,0-1.657,1.279,51.963,51.963,0,0,0,3.956,6.074c.417.524,1.375-.045,1.133-.659-.163-.417-.349-.828-.53-1.234.507.451,1.008.907,1.516,1.358a1.092,1.092,0,0,0,1.809-1.054c-.147-.535-.321-1.054-.513-1.555a64.046,64.046,0,0,0,5.764,3.5c.744.4,1.989-.287,1.595-1.228-.2-.468-.411-.918-.637-1.352q1.488.727,2.969,1.459c.7.344,1.764-.169,1.651-1a24.555,24.555,0,0,1,3.11,2.181,1.082,1.082,0,0,0,1.8-.569c.828.58,1.651,1.167,2.479,1.747.924.654,1.972-.592,1.476-1.476Z" transform="translate(-259.673 -611.24)" fill="#1d78ec"/>
      </g>
    </g>
  </g>
</svg>
