<svg xmlns="http://www.w3.org/2000/svg" xmlns:xlink="http://www.w3.org/1999/xlink" width="375" height="812" viewBox="0 0 375 812">
  <defs>
    <clipPath id="clip-path">
      <rect id="Rectangle_62006" data-name="Rectangle 62006" width="375" height="812" transform="translate(20778 -7088)" fill="#fff" stroke="#707070" stroke-width="1"/>
    </clipPath>
    <clipPath id="clip-path-2">
      <rect id="Rectangle_61962" data-name="Rectangle 61962" width="506.427" height="337.618" fill="none"/>
    </clipPath>
    <clipPath id="clip-path-3">
      <path id="Path_113887" data-name="Path 113887" d="M0,243.015v39.239H506.34v-44C434.126,262.236,298.427,296.5,195.447,258.7c-51.194-18.785-93.973-24.909-128-24.909-28.839,0-51.392,4.4-67.447,9.222" transform="translate(0 -233.793)" fill="none"/>
    </clipPath>
    <clipPath id="clip-path-4">
      <rect id="Rectangle_61965" data-name="Rectangle 61965" width="506.34" height="45.12" fill="none"/>
    </clipPath>
    <clipPath id="clip-path-6">
      <rect id="Rectangle_61966" data-name="Rectangle 61966" width="163.824" height="1.81" fill="none"/>
    </clipPath>
    <clipPath id="clip-path-7">
      <rect id="Rectangle_61967" data-name="Rectangle 61967" width="163.824" height="1.809" fill="none"/>
    </clipPath>
    <clipPath id="clip-path-8">
      <rect id="Rectangle_61968" data-name="Rectangle 61968" width="30.148" height="1.914" fill="none"/>
    </clipPath>
    <clipPath id="clip-path-9">
      <path id="Path_113891" data-name="Path 113891" d="M162.029,308.158C85.42,330.043,33.246,336.048,0,336.494V430.08H506.34V304.22c-45.394-12-103.386-19.438-164.875-19.437-59.307,0-121.867,6.929-179.437,23.375" transform="translate(0 -284.783)" fill="none"/>
    </clipPath>
    <clipPath id="clip-path-10">
      <path id="Path_113892" data-name="Path 113892" d="M162.029,308.158C85.42,330.043,33.246,336.048,0,336.494v11.159c35.918,10.3,98.749,27.1,207.6-10.8,129.417-45.065,233.344-35.632,298.741-19.218V304.22c-45.388-11.994-103.395-19.437-164.875-19.437-59.313,0-121.86,6.927-179.437,23.375" transform="translate(0 -284.783)" fill="none"/>
    </clipPath>
    <clipPath id="clip-path-12">
      <rect id="Rectangle_61972" data-name="Rectangle 61972" width="506.34" height="175.278" fill="none"/>
    </clipPath>
    <clipPath id="clip-path-13">
      <path id="Path_113893" data-name="Path 113893" d="M506.34,304.22V460.061H0V336.494c33.246-.446,85.42-6.451,162.029-28.335,117.258-33.5,255.135-27.5,344.311-3.939" transform="translate(0 -284.783)" fill="none"/>
    </clipPath>
    <clipPath id="clip-path-16">
      <rect id="Rectangle_61978" data-name="Rectangle 61978" width="70.543" height="76.741" fill="none"/>
    </clipPath>
    <clipPath id="clip-path-18">
      <rect id="Rectangle_61983" data-name="Rectangle 61983" width="506.34" height="369.998" fill="none"/>
    </clipPath>
    <clipPath id="clip-path-19">
      <rect id="Rectangle_61990" data-name="Rectangle 61990" width="506.86" height="506.86" fill="none"/>
    </clipPath>
    <clipPath id="clip-path-20">
      <rect id="Rectangle_61985" data-name="Rectangle 61985" width="337.911" height="35.868" fill="none"/>
    </clipPath>
    <clipPath id="clip-path-21">
      <rect id="Rectangle_61986" data-name="Rectangle 61986" width="760.288" height="104.365" fill="none"/>
    </clipPath>
    <clipPath id="clip-path-22">
      <rect id="Rectangle_61987" data-name="Rectangle 61987" width="526.988" height="32.625" fill="none"/>
    </clipPath>
    <clipPath id="clip-path-23">
      <rect id="Rectangle_61988" data-name="Rectangle 61988" width="392.382" height="23.755" fill="none"/>
    </clipPath>
    <clipPath id="clip-path-24">
      <rect id="Rectangle_61989" data-name="Rectangle 61989" width="471.535" height="23.817" fill="#d1c1a8"/>
    </clipPath>
    <clipPath id="clip-path-27">
      <rect id="Rectangle_61993" data-name="Rectangle 61993" width="506.86" height="420.447" transform="translate(3 -1)" fill="none"/>
    </clipPath>
    <clipPath id="clip-path-28">
      <rect id="Rectangle_61994" data-name="Rectangle 61994" width="837.306" height="515.933" fill="none"/>
    </clipPath>
    <clipPath id="clip-path-29">
      <rect id="Rectangle_61995" data-name="Rectangle 61995" width="147.784" height="155.65" fill="none"/>
    </clipPath>
    <clipPath id="clip-path-30">
      <rect id="Rectangle_61996" data-name="Rectangle 61996" width="32.926" height="87.625" fill="none"/>
    </clipPath>
    <clipPath id="clip-path-31">
      <rect id="Rectangle_61997" data-name="Rectangle 61997" width="7.375" height="22.33" fill="none"/>
    </clipPath>
    <clipPath id="clip-path-32">
      <rect id="Rectangle_61998" data-name="Rectangle 61998" width="21.462" height="18.894" fill="none"/>
    </clipPath>
    <clipPath id="clip-path-33">
      <rect id="Rectangle_61999" data-name="Rectangle 61999" width="1.838" height="27.306" fill="none"/>
    </clipPath>
    <clipPath id="clip-path-34">
      <rect id="Rectangle_62000" data-name="Rectangle 62000" width="8.647" height="18.114" fill="none"/>
    </clipPath>
    <clipPath id="clip-path-35">
      <rect id="Rectangle_62001" data-name="Rectangle 62001" width="6.309" height="7.466" fill="none"/>
    </clipPath>
    <clipPath id="clip-path-36">
      <rect id="Rectangle_62002" data-name="Rectangle 62002" width="2.997" height="19.253" fill="none"/>
    </clipPath>
    <clipPath id="clip-path-37">
      <rect id="Rectangle_62003" data-name="Rectangle 62003" width="3.027" height="47.922" fill="none"/>
    </clipPath>
    <clipPath id="clip-path-38">
      <rect id="Rectangle_62004" data-name="Rectangle 62004" width="5.262" height="8.96" fill="none"/>
    </clipPath>
    <clipPath id="clip-path-39">
      <rect id="Rectangle_62005" data-name="Rectangle 62005" width="4.511" height="19.668" fill="none"/>
    </clipPath>
  </defs>
  <g id="Mask_Group_112" data-name="Mask Group 112" transform="translate(-20778 7088)" clip-path="url(#clip-path)">
    <g id="Group_129029" data-name="Group 129029" transform="translate(20797 -7088)">
      <g id="Group_128993" data-name="Group 128993" transform="translate(-13.025 406.09)">
        <g id="Group_128991" data-name="Group 128991" transform="translate(-171.627 -10)">
          <g id="Group_128955" data-name="Group 128955" transform="translate(162.282 125.412)">
            <g id="Group_128954" data-name="Group 128954">
              <g id="Group_128905" data-name="Group 128905" transform="translate(0 157.838)">
                <g id="Group_128904" data-name="Group 128904" clip-path="url(#clip-path-3)">
                  <rect id="Rectangle_61963" data-name="Rectangle 61963" width="506.34" height="62.702" transform="translate(0 0)" fill="#a99e8e"/>
                </g>
              </g>
              <g id="Group_128907" data-name="Group 128907" transform="translate(0 204.613)">
                <g id="Group_128906" data-name="Group 128906" clip-path="url(#clip-path-4)">
                  <rect id="Rectangle_61964" data-name="Rectangle 61964" width="506.34" height="45.12" transform="translate(0)" fill="#b8d0d3"/>
                </g>
              </g>
              <g id="Group_128918" data-name="Group 128918" transform="translate(0 0)">
                <g id="Group_128917" data-name="Group 128917" clip-path="url(#clip-path-2)">
                  <g id="Group_128910" data-name="Group 128910" transform="translate(23.608 211.299)" opacity="0.61">
                    <g id="Group_128909" data-name="Group 128909">
                      <g id="Group_128908" data-name="Group 128908" clip-path="url(#clip-path-6)">
                        <path id="Path_113888" data-name="Path 113888" d="M198.793,313.886s-36.673.9-81.912.9-81.912-.9-81.912-.9,36.673-.9,81.912-.9,81.912.9,81.912.9" transform="translate(-34.969 -312.98)" fill="#e0f7fa"/>
                      </g>
                    </g>
                  </g>
                  <g id="Group_128913" data-name="Group 128913" transform="translate(96.211 217.285)" opacity="0.61">
                    <g id="Group_128912" data-name="Group 128912">
                      <g id="Group_128911" data-name="Group 128911" clip-path="url(#clip-path-7)">
                        <path id="Path_113889" data-name="Path 113889" d="M306.334,322.751s-36.673.9-81.912.9-81.912-.9-81.912-.9,36.674-.9,81.912-.9,81.912.9,81.912.9" transform="translate(-142.51 -321.846)" fill="#e0f7fa"/>
                      </g>
                    </g>
                  </g>
                  <g id="Group_128916" data-name="Group 128916" transform="translate(0 236.156)" opacity="0.61">
                    <g id="Group_128915" data-name="Group 128915">
                      <g id="Group_128914" data-name="Group 128914" clip-path="url(#clip-path-8)">
                        <path id="Path_113890" data-name="Path 113890" d="M30.148,350.76S18.4,351.266,0,351.712V349.8c18.4.456,30.148.962,30.148.962" transform="translate(0 -349.798)" fill="#e0f7fa"/>
                      </g>
                    </g>
                  </g>
                </g>
              </g>
              <g id="Group_128920" data-name="Group 128920" transform="translate(0 192.263)">
                <g id="Group_128919" data-name="Group 128919" clip-path="url(#clip-path-9)">
                  <rect id="Rectangle_61970" data-name="Rectangle 61970" width="506.34" height="145.299" transform="translate(0 -0.001)" fill="#d1c1a8"/>
                </g>
              </g>
              <g id="Group_128922" data-name="Group 128922" transform="translate(0 192.263)">
                <g id="Group_128921" data-name="Group 128921" clip-path="url(#clip-path-10)">
                  <rect id="Rectangle_61971" data-name="Rectangle 61971" width="506.34" height="89.972" transform="translate(0 0)" fill="#a99e8e"/>
                </g>
              </g>
              <g id="Group_128944" data-name="Group 128944" transform="translate(0 0)">
                <g id="Group_128943" data-name="Group 128943" clip-path="url(#clip-path-2)">
                  <g id="Group_128942" data-name="Group 128942" transform="translate(435.797 261.432)" opacity="0.18" style="mix-blend-mode: color-dodge;isolation: isolate">
                    <g id="Group_128941" data-name="Group 128941">
                      <g id="Group_128940" data-name="Group 128940" clip-path="url(#clip-path-16)">
                        <path id="Path_113897" data-name="Path 113897" d="M716.053,391.066v72.913c-28.9-27.342-56.568-59.768-70.543-76.741,21.955.415,45.449,1.641,70.543,3.828" transform="translate(-645.51 -387.238)" fill="#fff"/>
                      </g>
                    </g>
                  </g>
                  <path id="Path_113898" data-name="Path 113898" d="M98.537,256.926l-2.58,12.839h5.159Z" transform="translate(-31.175 -83.47)" fill="#aed581"/>
                  <path id="Path_113899" data-name="Path 113899" d="M729.937,275.274l-2.58,12.84h5.159Z" transform="translate(-236.304 -89.431)" fill="#aed581"/>
                  <path id="Path_113900" data-name="Path 113900" d="M44.034,233.793l-1.29,6.42h2.58Z" transform="translate(-13.887 -75.955)" fill="#aed581"/>
                  <path id="Path_113901" data-name="Path 113901" d="M188.019,244.543l-2.58,12.839H190.6Z" transform="translate(-60.246 -79.447)" fill="#aed581"/>
                  <path id="Path_113902" data-name="Path 113902" d="M681.779,254.211l-1.869,9.3h3.737Z" transform="translate(-220.889 -82.588)" fill="#aed581"/>
                </g>
              </g>
            </g>
          </g>
          <g id="Group_128990" data-name="Group 128990" transform="translate(0 0)">
            <g id="Group_128989" data-name="Group 128989">
              <rect id="Rectangle_61984" data-name="Rectangle 61984" width="506.86" height="719.082" transform="translate(165.402 -396.089)" fill="#d1c1a8"/>
              <g id="Group_128973" data-name="Group 128973" transform="translate(173.403 -51.09)">
                <g id="Group_128972" data-name="Group 128972" transform="translate(-27 -345)" clip-path="url(#clip-path-19)">
                  <g id="Group_128958" data-name="Group 128958" transform="translate(-126.715 78.873)" opacity="0.72">
                    <g id="Group_128957" data-name="Group 128957">
                      <g id="Group_128956" data-name="Group 128956" clip-path="url(#clip-path-20)">
                        <path id="Path_113905" data-name="Path 113905" d="M61.063,124.489,398.974,148,61.063,160.357Z" transform="translate(-61.063 -124.489)" fill="#bfb0a2"/>
                      </g>
                    </g>
                  </g>
                  <g id="Group_128971" data-name="Group 128971" transform="translate(-143.481 42.377)">
                    <g id="Group_128961" data-name="Group 128961" transform="translate(0 0)" opacity="0.35">
                      <g id="Group_128960" data-name="Group 128960">
                        <g id="Group_128959" data-name="Group 128959" clip-path="url(#clip-path-21)">
                          <path id="Path_113906" data-name="Path 113906" d="M61.063,66.4l760.29,71.538v18.543L61.063,170.76Z" transform="translate(-61.063 -66.395)" fill="#bfb0a2"/>
                        </g>
                      </g>
                    </g>
                    <g id="Group_128964" data-name="Group 128964" transform="translate(233.185 102.376)" opacity="0.35">
                      <g id="Group_128963" data-name="Group 128963">
                        <g id="Group_128962" data-name="Group 128962" clip-path="url(#clip-path-22)">
                          <path id="Path_113907" data-name="Path 113907" d="M956.1,227.98,429.112,243.087,956.1,260.606Z" transform="translate(-429.111 -227.98)" fill="#bfb0a2"/>
                        </g>
                      </g>
                    </g>
                    <g id="Group_128967" data-name="Group 128967" transform="translate(367.791 4.427)" opacity="0.72">
                      <g id="Group_128966" data-name="Group 128966">
                        <g id="Group_128965" data-name="Group 128965" clip-path="url(#clip-path-23)">
                          <path id="Path_113908" data-name="Path 113908" d="M1033.947,73.383,641.567,75.26l392.38,21.879Z" transform="translate(-641.566 -73.383)" fill="#cbbaa5"/>
                        </g>
                      </g>
                    </g>
                    <g id="Group_128970" data-name="Group 128970" transform="translate(0 148.599)" opacity="0.72">
                      <g id="Group_128969" data-name="Group 128969" transform="translate(0)">
                        <g id="Group_128968" data-name="Group 128968" clip-path="url(#clip-path-24)">
                          <path id="Path_113909" data-name="Path 113909" d="M61.063,300.936,532.6,316.549l-471.535,8.2Z" transform="translate(-61.063 -300.936)" fill="#b9a9a0"/>
                        </g>
                      </g>
                    </g>
                  </g>
                </g>
              </g>
              <g id="Group_128986" data-name="Group 128986" transform="translate(165.403)">
                <g id="Group_128985" data-name="Group 128985" clip-path="url(#clip-path-27)">
                  <path id="Path_113910" data-name="Path 113910" d="M841.417,445.259a.8.8,0,1,1-.8-.8.8.8,0,0,1,.8.8" transform="translate(-473.136 -162.863)" fill="#7cb342"/>
                  <g id="Group_128979" data-name="Group 128979" transform="translate(-319.146 154.406)">
                    <g id="Group_128978" data-name="Group 128978" transform="translate(206 -67)">
                      <path id="Path_113911" data-name="Path 113911" d="M998.489,485.569l-5.113.1,1.211-56.73,1.279-.025Z" transform="translate(-529.401 -157.166)" fill="#6e4730"/>
                      <path id="Path_113912" data-name="Path 113912" d="M996.974,485.623l-3.113-3.294,22.337-18.763.778.824Z" transform="translate(-529.579 -169.862)" fill="#6e4730"/>
                      <path id="Path_113913" data-name="Path 113913" d="M996.871,463.454l-2.114-2.237,15.167-12.741.528.559Z" transform="translate(-529.907 -164.333)" fill="#6e4730"/>
                      <path id="Path_113914" data-name="Path 113914" d="M984.706,477.009l2.646-2.8-18.986-15.95-.661.7Z" transform="translate(-519.994 -167.918)" fill="#6e4730"/>
                      <path id="Path_113915" data-name="Path 113915" d="M988.7,452.787l1.731-1.832L978.013,440.52l-.432.458Z" transform="translate(-523.613 -161.418)" fill="#6e4730"/>
                    </g>
                  </g>
                  <g id="Group_128983" data-name="Group 128983" transform="translate(187.994 311.075)">
                    <g id="Group_128980" data-name="Group 128980" transform="translate(36.451)">
                      <path id="Path_113916" data-name="Path 113916" d="M663.31,433.763h-4.393l1.5-71.98h1.388Z" transform="translate(-636.29 -336.389)" fill="#fff"/>
                      <path id="Path_113917" data-name="Path 113917" d="M666.226,321.7l3.166.711-6.525,23.99-1-.224Z" transform="translate(-637.372 -321.703)" fill="#fff"/>
                      <path id="Path_113918" data-name="Path 113918" d="M624.174,370.558l-.968-3.1,24.038-6.345.306.978Z" transform="translate(-623.207 -336.145)" fill="#fff"/>
                      <path id="Path_113919" data-name="Path 113919" d="M682.379,377.716l-2.2,2.386-17.515-17.645.7-.754Z" transform="translate(-637.665 -336.36)" fill="#fff"/>
                      <path id="Path_113920" data-name="Path 113920" d="M663.426,360.657a2.531,2.531,0,1,1-1.915-3.025,2.531,2.531,0,0,1,1.915,3.025" transform="translate(-636.11 -334.845)" fill="#fff"/>
                      <path id="Path_113921" data-name="Path 113921" d="M663.072,360.976a1.642,1.642,0,1,1-1.242-1.962,1.642,1.642,0,0,1,1.242,1.962" transform="translate(-636.624 -335.36)" fill="#546e7a"/>
                    </g>
                    <g id="Group_128981" data-name="Group 128981" transform="translate(0 26.087)">
                      <path id="Path_113922" data-name="Path 113922" d="M598.075,453.384h-3.565l1.219-58.416h1.126Z" transform="translate(-576.239 -374.636)" fill="#fff"/>
                      <path id="Path_113923" data-name="Path 113923" d="M603.087,362.877l2.5.812-7.075,18.9-.791-.257Z" transform="translate(-577.417 -362.877)" fill="#fff"/>
                      <path id="Path_113924" data-name="Path 113924" d="M566.222,400.05l-.549-2.576,19.9-3.32.173.814Z" transform="translate(-565.673 -374.338)" fill="#fff"/>
                      <path id="Path_113925" data-name="Path 113925" d="M612.96,409.195,611,410.958l-12.826-15.576.618-.557Z" transform="translate(-577.584 -374.584)" fill="#fff"/>
                      <path id="Path_113926" data-name="Path 113926" d="M598.845,394.06a2.054,2.054,0,1,1-1.321-2.588,2.055,2.055,0,0,1,1.321,2.588" transform="translate(-576.358 -373.318)" fill="#fff"/>
                      <path id="Path_113927" data-name="Path 113927" d="M598.576,394.254a1.333,1.333,0,1,1-.857-1.679,1.333,1.333,0,0,1,.857,1.679" transform="translate(-576.776 -373.736)" fill="#546e7a"/>
                    </g>
                    <g id="Group_128982" data-name="Group 128982" transform="translate(79.926 32.722)">
                      <path id="Path_113928" data-name="Path 113928" d="M714.511,456.262h-3.262l1.116-53.439h1.03Z" transform="translate(-698.941 -384.149)" fill="#fff"/>
                      <path id="Path_113929" data-name="Path 113929" d="M703.333,374.039l2.308-.691,4.5,17.9-.729.219Z" transform="translate(-696.04 -373.349)" fill="#fff"/>
                      <path id="Path_113930" data-name="Path 113930" d="M693.577,417.214l-1.753-1.653,13.254-12.847.554.522Z" transform="translate(-691.825 -384.109)" fill="#fff"/>
                      <path id="Path_113931" data-name="Path 113931" d="M732.681,405.594l-.556,2.344-17.753-5.055.175-.741Z" transform="translate(-700.086 -383.9)" fill="#fff"/>
                      <path id="Path_113932" data-name="Path 113932" d="M714.444,400.917a1.88,1.88,0,1,1-2.34-1.262,1.88,1.88,0,0,1,2.34,1.262" transform="translate(-698.765 -382.959)" fill="#fff"/>
                      <path id="Path_113933" data-name="Path 113933" d="M714.193,401.488a1.219,1.219,0,1,1-1.518-.819,1.219,1.219,0,0,1,1.518.819" transform="translate(-699.146 -383.341)" fill="#546e7a"/>
                    </g>
                  </g>
                </g>
              </g>
            </g>
          </g>
        </g>
        <path id="Path_113941" data-name="Path 113941" d="M118.318,188.318a14.56,14.56,0,0,1,8.742,2.772c1.722-2.951,5.511-5,9.915-5a13.313,13.313,0,0,1,4.393.727c2.057-3.365,6.428-5.69,11.492-5.69,6.841,0,12.419,4.248,12.732,9.569,2.951-.581,10.977.961,10.81,5.455-.235,5.969-33.748,8.339-39.069,8.339-4.684,0-39.673,1.252-39.863-6.439-.1-3.957,4.1-6.226,7.836-6.226a9.785,9.785,0,0,1,2.962.447,13.953,13.953,0,0,1,10.05-3.946Z" transform="translate(-39.257 -518.564)" fill="rgba(255,255,255,0.4)" fill-rule="evenodd"/>
        <path id="Path_113942" data-name="Path 113942" d="M118.318,188.318a14.56,14.56,0,0,1,8.742,2.772c1.722-2.951,5.511-5,9.915-5a13.313,13.313,0,0,1,4.393.727c2.057-3.365,6.428-5.69,11.492-5.69,6.841,0,12.419,4.248,12.732,9.569,2.951-.581,10.977.961,10.81,5.455-.235,5.969-33.748,8.339-39.069,8.339-4.684,0-39.673,1.252-39.863-6.439-.1-3.957,4.1-6.226,7.836-6.226a9.785,9.785,0,0,1,2.962.447,13.953,13.953,0,0,1,10.05-3.946Z" transform="translate(-64.443 -418.116)" fill="rgba(255,255,255,0.4)" fill-rule="evenodd"/>
        <path id="Path_113943" data-name="Path 113943" d="M118.318,188.318a14.56,14.56,0,0,1,8.742,2.772c1.722-2.951,5.511-5,9.915-5a13.313,13.313,0,0,1,4.393.727c2.057-3.365,6.428-5.69,11.492-5.69,6.841,0,12.419,4.248,12.732,9.569,2.951-.581,10.977.961,10.81,5.455-.235,5.969-33.748,8.339-39.069,8.339-4.684,0-39.673,1.252-39.863-6.439-.1-3.957,4.1-6.226,7.836-6.226a9.785,9.785,0,0,1,2.962.447,13.953,13.953,0,0,1,10.05-3.946Z" transform="translate(238.886 -530.284)" fill="rgba(255,255,255,0.4)" fill-rule="evenodd"/>
      </g>
      <g id="Group_129028" data-name="Group 129028" transform="translate(-202.527 586.849)">
        <g id="Group_128997" data-name="Group 128997" transform="translate(169.528 87.5)">
          <path id="Path_113944" data-name="Path 113944" d="M169.8,146.532c1.709.417,3.272,1.229,4.984,1.618,1.975.447,3.946.926,5.908,1.386a54.732,54.732,0,0,0,12.692.962c3.833-.012,7.647-.477,11.47-.575a77.809,77.809,0,0,0-7.6-3.211c-3.371-1.237-6.824-2.229-10.207-3.429a27.66,27.66,0,0,1-8.014-4.7l-.008-.007a82.193,82.193,0,0,1-7.331-5.267.47.47,0,0,1-.18-.568.174.174,0,0,1,.041,0c2.449-.073,4.872,1.916,6.832,3.145a53.342,53.342,0,0,0,7.668,3.938c.093.035.2,0,.192-.116-.03-4.893-2.212-9.559-4.02-14.025-.825-2.048-1.7-4.064-2.466-6.138-.815-2.2-1.891-4.2-2.886-6.316-.232-.489.368-.55.636-.273a21.319,21.319,0,0,1,3.555,6.067c.9,2.017,1.853,4.077,2.651,6.148.371.649.73,1.3,1.071,1.972.371,1.421.7,2.856,1.027,4.289a.133.133,0,0,0,.255,0c.467-3.1,2.394-5.912,2.442-9.084a16.381,16.381,0,0,0-1.661-6.407,5.027,5.027,0,0,1,.061-2.634l.414-.051a44.237,44.237,0,0,1,2.35,10.213,12.3,12.3,0,0,1-.358,2.8,8.336,8.336,0,0,1-.162.941c-.7,2.967-.932,12.616,3.352,13.991,2.406.763,2.207.477,4.62,1.181,1.157.339,2.313.679,3.433,1.113,1.452.563,2.774,1.429,4.186,2.078-.384-.919-.785-1.835-1.121-2.777a31.152,31.152,0,0,1-1.095-5.34,26.417,26.417,0,0,0-1.485-5.594c-.755-1.848-1.54-3.655-2.139-5.562-1.222-3.883-1.5-7.841-2.285-11.808-.359-1.85-.957-3.66-1.432-5.479-.359-1.393-1.326-2.651-1.442-4.1-.043-.546.5-.457.8-.2,1.787,1.6,2.765,4.052,3.5,6.274a41.766,41.766,0,0,1,1,4.7c.354,1.729,1.022,3.355,1.379,5.087.113.555.2,1.123.291,1.7.229.442.452.874.7,1.3a45.164,45.164,0,0,1,3.247,9.785c.061.238.121.475.172.714a.135.135,0,0,0,.24-.086,21.33,21.33,0,0,1,.732-4.2,15.8,15.8,0,0,0,.318-3.9c-.02-.588-.065-1.167-.129-1.744a7.718,7.718,0,0,0-.209-2.222c-.462-1.831-1.449-3.782-1.4-5.711a7.862,7.862,0,0,1-.518-4.928c.1-.318.51-.293.753-.187a1.4,1.4,0,0,1,.161.073,59.232,59.232,0,0,1,3.052,14.126c.353,2.926-.985,5.45-1.126,8.261-.093,1.84,1.07,4.15,1.538,5.945a14.731,14.731,0,0,0,2.23,5.486,18.856,18.856,0,0,0,4.7,3.848,68.194,68.194,0,0,1,11,8.914,43.99,43.99,0,0,1,4.166,4.524,11.526,11.526,0,0,1,.664.994c-.017-1.465-.083-2.928-.222-4.39-.051-.583-.131-1.171-.212-1.75a48.8,48.8,0,0,0,.131-7.1,56.263,56.263,0,0,0-1.192-8.821c-.088-1.653-.262-3.32-.512-4.989-.1-.295-.2-.588-.3-.878a8.047,8.047,0,0,0-3.087-3.954c-2.722-1.98-5.981-3.058-8.713-5.045a28.512,28.512,0,0,1-6.062-6.675c-.447-.614-2.972-4.115-1.091-4.474,1.517-.295,3.251,2.038,4.054,3.045a18.933,18.933,0,0,1,1.8,2.893c.6.512,1.157,1.056,1.717,1.611a30.657,30.657,0,0,0,4.979,3.873c1.674,1.071,3.588,1.734,5.256,2.818a48.2,48.2,0,0,0-2.106-5.916,17.407,17.407,0,0,0-3.161-4.156c-1.3-1.53-2.532-3.126-3.756-4.718s-2.444-3.221-3.726-4.784a21.65,21.65,0,0,1-3.232-4.373c-1.379-2.934-1.767-6.185-2.84-9.227a.828.828,0,0,1,1,0,7.162,7.162,0,0,1,1.648,1.457c.26.465.51.934.745,1.417a31.05,31.05,0,0,1,1.32,3.106,14.282,14.282,0,0,0,.994,2.481,18.758,18.758,0,0,0,1.6,2.088c.727.922,1.394,1.878,2.045,2.85,1.126,1.714,2.216,3.459,3.467,5.084a.135.135,0,0,0,.207-.033,15.707,15.707,0,0,0,1-4.959,29.894,29.894,0,0,0-.116-5.431,35.094,35.094,0,0,0-2.994-10.551,1.755,1.755,0,0,1,1.207.185c.841,2.209,1.807,4.381,2.534,6.632a16.471,16.471,0,0,1,.838,3.747c.1,1.215.094,2.436.083,3.648s.07,2.389.142,3.595c.19,2.991-1.048,4.527.813,7.321,1.394,2.1,3.429,3.674,4.688,5.872a35.946,35.946,0,0,1,3.476,9.167c.684,2.653.818,6.2,2.126,8.616-.175-.315.965-3.207,1.073-3.595.432-1.666.013-3.6.313-5.291a47.768,47.768,0,0,0,.262-10.1c-.215-6.633-1.507-11.826-3.325-18.047a40.233,40.233,0,0,1-1.144-9.026c-.071-1.161,1.591-.025,1.757.558.835,2.873,1.583,5.756,2.385,8.634,1.018,3.664,2.823,7.266,2.964,11.106.108,3.173.8,5.463,1.78,10.391.755-1.318.664-3.057.752-4.544a16.921,16.921,0,0,1,1.146-5.206c1.388-3.62,2.466-7.349,3.906-10.955,1.378-3.453,3.022-6.855,4.126-10.407.858-2.764,1.52-6.011.2-8.733a5.806,5.806,0,0,1,2.217.555,15.682,15.682,0,0,1,1.2,4.757,11.681,11.681,0,0,1-1.583,7.089c-.571,1.778-1.267,3.532-1.934,5.249,1.192-.7,2.474-1.326,3.651-1.944,2.073-1.083,4.145-2.148,6.168-3.325a26.238,26.238,0,0,0,2.8-1.816,4.446,4.446,0,0,1,2.184-1.139,1.414,1.414,0,0,1,1.2.674c-.012.4-.063.782-.445.936a7.127,7.127,0,0,0-1.563,1.2c-.722.57-1.47,1.121-2.225,1.638a63.608,63.608,0,0,1-8.554,4.731,15.7,15.7,0,0,0-3.616,2.2,10.07,10.07,0,0,0-2.449,3.4,42.748,42.748,0,0,0-2.944,9.28.144.144,0,0,0,.012.1c-.606,2.949-.861,5.951-1.227,8.93-.189,1.513-.793,2.936-.974,4.441a14.977,14.977,0,0,0,.131,2.848c1.078-1.287,2.33-2.393,3.467-3.625,1.631-1.78,3.358-3.477,5.12-5.135,3.5-3.285,7.177-6.365,10.859-9.429,1.23-1.422,2.269-2.934,3.433-4.463a20.608,20.608,0,0,0,3.9-6.774c.162-.586.98.152,1.048.455.1.508.18,1.027.24,1.542-.613,2.361-2.947,4.531-4.016,6.554-.972,1.855-1.681,3.749-3.2,5.244a38.558,38.558,0,0,0-3.01,3.012,17.375,17.375,0,0,1,5.362-2.706c5.7-1.636,11.445-3.113,17.036-5.09a13.056,13.056,0,0,0,2.668-1.285c.434-.3,1.164.238,1.085.748a6.713,6.713,0,0,1-.263,1.093c-.1.131-.182.263-.275.381-.479.684-1.364.621-2.123.75-3.779.649-7.178,2.434-10.682,3.9a28.806,28.806,0,0,1-5.231,1.6c-1.714.361-8,5.032-9.318,6.032a30.65,30.65,0,0,0-8.919,10.328c-1.668,3.174-2.224,4.751-2.226,8.223,0,2.991-.379,7.092.268,9.881,1.977-.58,2.779-2.916,4.282-4.15a40.646,40.646,0,0,1,5.877-4.047c.767-.431,1.552-.831,2.336-1.22.157-.172.318-.344.477-.5.894-.912,1.84-1.813,2.643-2.81a16.3,16.3,0,0,0,1.939-4c1.108-2.709,2.433-5.267,3.777-7.867,1.1-2.136,2.106-4.623,4.168-6.011.513-.353,1.217.339,1.066.886-.54,1.936-1.969,3.383-2.916,5.115a48.918,48.918,0,0,0-2.462,6.627,1.065,1.065,0,0,1-.053.137,41.26,41.26,0,0,1-1.709,5.239c.331-.151.667-.3,1-.465,4.645-2.244,12.522-6.034,14.775-10.993.969-2.138,1.412-4.381,2.56-6.468,2.525-4.577,6.3-8.44,9.495-12.518.268-.339,1.015.205.765.561-1.535,2.285-2.765,4.84-4.173,7.218-.161.267-.328.527-.482.787-1.148,1.679-2.217,3.4-3.206,5.183-1.156,2.11-2.062,4.348-3.166,6.488a.213.213,0,0,0,.33.238,60.8,60.8,0,0,1,5.607-4.895,48.056,48.056,0,0,1,5.946-4.209c2.986-1.663,6.493-2.424,9.314-4.347.449.371.686.884.325,1.35-2.519,3.214-6.158,5.156-9.6,7.2-1.734,1.018-3.454,2.134-5.137,3.322,1.838-.406,3.7-.7,5.529-.959,3.115-.444,6.35-.293,9.364-1.245a31.059,31.059,0,0,0,9.188-5.069c.247-.192.856.3.608.538a44.953,44.953,0,0,1-6.537,5.4c-2.842,1.84-5.65,2.179-8.94,2.5a61.765,61.765,0,0,0-10.01,1.636,37.724,37.724,0,0,0-5.324,2.1c-1.75,1.924-8.846,5.93-12.858,8.783a59.678,59.678,0,0,1-6.35,2.856c-1.624.616-3.282,1.124-4.852,1.861a16.615,16.615,0,0,0-3.651,2.345,26.773,26.773,0,0,0-4.858,3.494,18.94,18.94,0,0,0-3.969,3.941c-.893,1.23-2.211,2.759-2.237,4.363a4.735,4.735,0,0,0,.038.689c-.205,3.381-.449,6.764-.594,10.151-.027.477-.04.96-.053,1.437-.725,3.517-.341,7.442-.035,10.848.669,7.677-.488,15.41,1.007,23.025a94.65,94.65,0,0,1,1.379,10.468c.262,3.168,1.037,6.066,3.408,8.317,6.039,5.748,15.36,4.486,22.7,7.326.273.022.542.031.81.053.176.021.389.351.217.444.147.205.207.54-.111.442-.339-.1-.669-.189-1.015-.275a20.753,20.753,0,0,1-6.567.179,35.783,35.783,0,0,0-7.4-.469c.646.331,1.336.593,1.98.846a10.077,10.077,0,0,0,3.61.97c.392,0,1.181.787.623,1.068.053.114.046.227-.113.25-.22.026-.437.033-.669.04-4.279,1.359-8.568-1.295-12.944-1-2.5.169-4.915.7-7.43.5a41.046,41.046,0,0,1-7.2-1.25c.315.341.684.626,1.01.955.257.245.487.942-.07.979a10.619,10.619,0,0,1-4.247-.8c-1.307-.464-2.5-.435-3.472-1.505-.651-.725-2.721.858-3.413,1.166a6.945,6.945,0,0,1-3.4.3c-.267-.023-.642-.4-.585-.692a6.5,6.5,0,0,1,.316-1.061c-.358.171-.722.343-1.088.5a9.614,9.614,0,0,1-2.641.517,23.251,23.251,0,0,1-6.233-.644,44.077,44.077,0,0,0-7.127-.633,30.843,30.843,0,0,0-6.8.222c-.44.083-1.138-.7-.745-1.071,2.081-2.048,4.587-2.878,7.377-3.544,3.479-.83,6.867-2.59,10.124-4.012,2.489-1.086,5.11-2.694,6.5-5.09a6.274,6.274,0,0,0,.669-1.687,14.432,14.432,0,0,0,1.184-3.337,49.852,49.852,0,0,0,.989-10.548c.124-6.663.99-13.274,1.586-19.9.532-5.921,1.008-11.931.949-17.915a33.385,33.385,0,0,0-5.5-7.869,52.971,52.971,0,0,0-10.252-9.068,15.974,15.974,0,0,0-2.734-2.164c-.854-.586-1.725-1.162-2.6-1.7a10.154,10.154,0,0,0-3.176-.109c-1.987.268-3.963.566-5.951.785a58.164,58.164,0,0,1-6.6.156,42.82,42.82,0,0,1-12.424-1.389c-1.954-.593-3.875-1.282-5.769-2.042s-3.615-1.9-5.541-2.585c-.291-.109-.522-.792-.046-.686" transform="translate(-169.528 -87.5)" fill="#784313"/>
          <g id="Group_128996" data-name="Group 128996" transform="translate(0 0.002)" opacity="0.6" style="mix-blend-mode: multiply;isolation: isolate">
            <g id="Group_128995" data-name="Group 128995">
              <g id="Group_128994" data-name="Group 128994" clip-path="url(#clip-path-29)">
                <path id="Path_113945" data-name="Path 113945" d="M169.848,147.219c1.927.687,3.643,1.825,5.541,2.583s3.815,1.449,5.771,2.042a42.745,42.745,0,0,0,12.422,1.389,58.551,58.551,0,0,0,6.6-.154c1.989-.219,3.964-.518,5.953-.787a10.145,10.145,0,0,1,3.174.109c.878.543,1.749,1.118,2.6,1.706a15.836,15.836,0,0,1,2.734,2.163,53.042,53.042,0,0,1,10.252,9.069,33.317,33.317,0,0,1,5.5,7.869c.06,5.983-.417,11.992-.949,17.913-.6,6.63-1.462,13.24-1.586,19.905a49.854,49.854,0,0,1-.989,10.548,14.393,14.393,0,0,1-1.184,3.335,6.253,6.253,0,0,1-.669,1.687c-1.394,2.4-4.016,4.006-6.5,5.09-3.257,1.424-6.645,3.183-10.124,4.012-2.79.666-5.294,1.5-7.377,3.545-.392.369.3,1.154.745,1.07a30.947,30.947,0,0,1,6.8-.222,44.452,44.452,0,0,1,7.127.633,23.258,23.258,0,0,0,6.234.646,9.617,9.617,0,0,0,2.639-.518c.368-.151.73-.325,1.088-.493a6.481,6.481,0,0,0-.316,1.06c-.058.295.318.669.585.692a6.923,6.923,0,0,0,3.4-.3c.692-.31,2.762-1.891,3.413-1.167.974,1.071,2.166,1.042,3.474,1.507a10.614,10.614,0,0,0,4.247.8c.555-.038.325-.734.07-.98-.328-.328-.7-.614-1.012-.954a41.228,41.228,0,0,0,7.2,1.25c2.515.2,4.931-.334,7.43-.505,4.376-.3,8.667,2.355,12.946,1,.23-.007.447-.013.667-.041.159-.022.166-.136.113-.248.558-.283-.23-1.066-.623-1.07a10.01,10.01,0,0,1-3.61-.97c-.644-.253-1.335-.513-1.98-.845a35.667,35.667,0,0,1,7.4.469,18.735,18.735,0,0,0,5.834-.086,99.2,99.2,0,0,0-9.955-2.691c-1.962-.351-3.959-.409-5.925-.72a19.375,19.375,0,0,1-4.966-1.606,16.921,16.921,0,0,1-4.206-2.547,6.3,6.3,0,0,1-1.694-2.886c-.518-1.646-.883-3.363-1.308-5.034-.532-2.067-1.035-4.138-1.414-6.238a28.178,28.178,0,0,1-.437-8.786q-.045-1.12-.1-2.229a50.471,50.471,0,0,0-.705-6.271,47.5,47.5,0,0,1-.9-5.991c-.23-4.252.388-8.5.787-12.721a64.11,64.11,0,0,1,1.417-9.533,26.32,26.32,0,0,1,2.456-6.357,10.8,10.8,0,0,1,2.173-3.772,18.813,18.813,0,0,1,3.967-3.941,26.617,26.617,0,0,1,4.858-3.494,16.555,16.555,0,0,1,3.651-2.345c1.57-.739,3.227-1.245,4.852-1.863a62.581,62.581,0,0,0,6.344-2.848c2.754-1.961,6.956-4.466,9.891-6.463.826-.614,1.641-1.239,2.476-1.848a5.657,5.657,0,0,0,.5-.48c.164-.07.321-.144.482-.215a23.461,23.461,0,0,1,2.881-1.73,18.833,18.833,0,0,1,4.835-1.467c2.007-.4,4.035-.662,6.054-1,1.851-.315,3.666-.8,5.507-1.187a15.028,15.028,0,0,0,5.249-1.818,34,34,0,0,0,3.611-2.666,14.533,14.533,0,0,0,2.033-2.005.417.417,0,0,0-.45-.076,31.07,31.07,0,0,1-9.189,5.067c-3.014.952-6.248.8-9.364,1.245-1.27.174-2.552.376-3.825.616A35.006,35.006,0,0,1,288.3,136.7a.13.13,0,0,1-.123-.219c3.159-3.378,7.291-5.517,11.247-7.819a29.823,29.823,0,0,0,5.135-4.016c.57-.523,1.143-1.048,1.734-1.547-2.644,1.525-5.738,2.292-8.412,3.779a48.357,48.357,0,0,0-5.946,4.209q-1.555,1.2-3.032,2.5a17.82,17.82,0,0,1-6.079,5.339.133.133,0,0,1-.194-.147c.411-2.086,1.921-3.82,3.055-5.559a58.828,58.828,0,0,0,3.618-7,30.239,30.239,0,0,1,3.919-6.046c1.227-1.525,2.515-3.015,3.643-4.625-.19-.152-.459-.214-.608-.041-3.194,4.078-6.968,7.943-9.493,12.52-1.146,2.085-1.591,4.33-2.56,6.466-2.1,4.612-9.061,8.213-13.759,10.5a76.514,76.514,0,0,1-7.577,5.754c-.119.089-.247-.1-.146-.207a34.233,34.233,0,0,0,3.712-4.7,29.45,29.45,0,0,0,2.361-5.863,46.83,46.83,0,0,1,3.057-6.082c1.066-1.994,2.1-4,3.14-6.009a.518.518,0,0,0-.485.068c-2.062,1.388-3.063,3.875-4.168,6.011-1.345,2.6-2.669,5.158-3.777,7.867a16.3,16.3,0,0,1-1.939,4c-.8,1-1.749,1.9-2.643,2.81-.159.157-.32.328-.477.5-.785.387-1.57.788-2.336,1.22a40.526,40.526,0,0,0-5.875,4.045c-1.159.95-1.9,2.555-3.088,3.5a29.355,29.355,0,0,0-3.949,7.152,59.176,59.176,0,0,0-2.986,14.077.133.133,0,0,1-.265,0,56.108,56.108,0,0,1,.508-11.735c.586-4.133,1.722-8.221,1.866-12.394.134-3.941-.477-8.053.613-11.9.777-2.785,2.745-4.8,4.814-6.7,2.659-2.447,5.133-5.075,7.909-7.392a30.734,30.734,0,0,1,9.217-5.42c1.881-.689,3.818-1.219,5.718-1.869,1.742-.6,3.355-1.485,5.093-2.083,2.947-1.018,6.193-1.295,8.948-2.828.033-.147.063-.291.086-.445.079-.512-.651-1.048-1.086-.748a13.079,13.079,0,0,1-2.666,1.283c-5.59,1.977-11.336,3.456-17.036,5.09a17.448,17.448,0,0,0-5.362,2.706,15.518,15.518,0,0,1,1.275-1.364c-3.037,2.462-5.64,5.493-8.967,7.61-.126.079-.257-.1-.156-.207,3.742-4,7.8-7.695,11.414-11.821,2.762-3.164,4.463-7.152,6.069-11.02-.265-.229-.6-.356-.7,0a20.6,20.6,0,0,1-3.9,6.773c-1.164,1.528-2.2,3.04-3.433,4.464-3.683,3.062-7.357,6.143-10.859,9.427-1.762,1.658-3.489,3.355-5.12,5.137-1.136,1.232-2.389,2.338-3.467,3.623a14.977,14.977,0,0,1-.131-2.848c.18-1.505.785-2.926.975-4.439.364-2.981.619-5.983,1.225-8.932a.139.139,0,0,1-.012-.1,42.761,42.761,0,0,1,2.944-9.281,10.1,10.1,0,0,1,2.449-3.4,15.76,15.76,0,0,1,3.616-2.2,63.418,63.418,0,0,0,8.554-4.729c.755-.518,1.5-1.07,2.225-1.638a7.027,7.027,0,0,1,1.563-1.2c.383-.156.434-.533.447-.937a1.418,1.418,0,0,0-1.2-.674,4.435,4.435,0,0,0-2.184,1.141,26.41,26.41,0,0,1-2.8,1.815c-2.024,1.177-4.1,2.244-6.168,3.325-.83.437-1.714.879-2.572,1.348-1.517,1.684-3.171,3.254-4.675,4.949a.131.131,0,0,1-.222-.119c1.282-3.673,3.494-6.93,4.663-10.639a33.467,33.467,0,0,0,1.316-10.74,5,5,0,0,0-2.062-.505c1.323,2.722.661,5.969-.2,8.733-1.1,3.554-2.749,6.955-4.126,10.407-1.441,3.607-2.519,7.336-3.906,10.957a16.914,16.914,0,0,0-1.146,5.2c-.088,1.489,0,3.226-.752,4.544-.023-.1-.038-.2-.063-.293a69.623,69.623,0,0,1-2.383,13.772c-.035.141-.267.123-.253-.035.573-8.071,1.015-16.218-.376-24.239a107.4,107.4,0,0,0-2.914-11.161,35.778,35.778,0,0,1-1.638-8.8c-.545-.442-1.3-.717-1.258.071a40.232,40.232,0,0,0,1.144,9.026c1.818,6.221,3.111,11.416,3.325,18.049a47.864,47.864,0,0,1-.26,10.1c-.3,1.692.118,3.626-.313,5.292-.109.386-1.25,3.279-1.075,3.593-.1-.18-.189-.368-.273-.566a18.367,18.367,0,0,0-.565,1.826,10.033,10.033,0,0,0,.255,4.179,19.759,19.759,0,0,1,.369,3.888c-.008,2.8-.278,5.582-.23,8.385.043,2.439.176,4.964-.639,7.307-.038.109-.234.142-.25,0-.594-4.009-.255-8.058-.257-12.091-.01-4.2-.975-8.207-1.682-12.316-.344-1.99-.457-4-.768-5.993a39.986,39.986,0,0,0-1.292-5.577,43.043,43.043,0,0,0-4.8-10.381c-1.038-1.643-2.025-3.323-1.939-5.322.045-1.1.308-2.174.426-3.257.121-1.025.237-2.055.31-3.093.043-.676.081-1.356.088-2.038.013-1.06,0-2.115-.083-3.171a16.459,16.459,0,0,0-.838-3.746c-.725-2.252-1.692-4.423-2.534-6.632a1.755,1.755,0,0,0-1.207-.185,35.047,35.047,0,0,1,2.994,10.551,29.739,29.739,0,0,1,.116,5.431,15.687,15.687,0,0,1-1,4.958.135.135,0,0,1-.207.035c-1.252-1.626-2.341-3.371-3.467-5.085-.651-.972-1.316-1.927-2.043-2.85a18.559,18.559,0,0,1-1.6-2.086,14.283,14.283,0,0,1-.994-2.481,30.723,30.723,0,0,0-1.32-3.106c-.235-.484-.485-.952-.745-1.419a7.163,7.163,0,0,0-1.648-1.457.826.826,0,0,0-1,0c1.071,3.042,1.459,6.292,2.838,9.228a21.647,21.647,0,0,0,3.234,4.372c1.28,1.565,2.5,3.178,3.726,4.784s2.456,3.189,3.754,4.719a17.431,17.431,0,0,1,3.161,4.155,48.128,48.128,0,0,1,2.106,5.918c-1.667-1.086-3.582-1.749-5.256-2.82a30.568,30.568,0,0,1-4.978-3.871c-.561-.555-1.119-1.1-1.717-1.613a19.059,19.059,0,0,0-1.8-2.891c-.8-1.008-2.537-3.342-4.054-3.047-1.881.361.644,3.86,1.091,4.474a28.478,28.478,0,0,0,6.062,6.675c2.734,1.989,5.991,3.067,8.713,5.045a8.062,8.062,0,0,1,3.087,3.954c.1.291.205.585.3.878.252,1.669.424,3.338.512,4.991a56.444,56.444,0,0,1,1.194,8.819,49.036,49.036,0,0,1-.132,7.1c.081.581.162,1.167.212,1.752.139,1.462.205,2.923.222,4.376,0,0-.012,0-.012-.015.114,1.474.066,2.956.066,4.423a.131.131,0,0,1-.245.066,26.124,26.124,0,0,0-6.756-7.809c-1.316-1.106-2.669-2.156-4.007-3.227-1.421-1.141-2.787-2.322-4.294-3.335-1.53-1.023-3.125-1.962-4.64-3.015a8.424,8.424,0,0,1-3.285-3.433c-.286-.666-.48-1.376-.71-2.067-.329-.972-.763-1.911-1.109-2.876-.682-1.906-1.244-3.853-1.869-5.777-.937-2.866-2.28-5.577-3.211-8.45a85.6,85.6,0,0,1-2.242-8.881c-1.037-4.956-1.6-10.394-4.855-14.449a.381.381,0,0,0-.081.308c.114,1.451,1.081,2.709,1.441,4.1.475,1.82,1.073,3.631,1.432,5.481.787,3.966,1.063,7.923,2.285,11.808.6,1.906,1.384,3.712,2.139,5.56a26.418,26.418,0,0,1,1.485,5.594,31.174,31.174,0,0,0,1.095,5.342c.252.676.52,1.341.8,2.005a18.9,18.9,0,0,1,1.149,2.827c.026.088-.076.2-.156.162-3.62-1.3-7.206-2.635-10.742-4.143a24.134,24.134,0,0,1-4.1-2.129,6.544,6.544,0,0,1-2.591-2.87c-1.056-2.88-.657-5.746.272-8.6.253-.808.545-1.606.815-2.409.028-.149.053-.3.086-.426a8.361,8.361,0,0,0,.162-.942,12.4,12.4,0,0,0,.359-2.8,44.287,44.287,0,0,0-2.351-10.214l-.414.05a5.034,5.034,0,0,0-.061,2.636,16.372,16.372,0,0,1,1.661,6.4c-.048,3.173-1.974,5.983-2.442,9.084-.018.129-.225.127-.255,0-.328-1.432-.656-2.868-1.027-4.287-.341-.671-.7-1.323-1.071-1.974-.8-2.072-1.747-4.131-2.651-6.148a21.365,21.365,0,0,0-3.555-6.067c-.268-.277-.868-.215-.636.273,1,2.116,2.072,4.115,2.886,6.317.767,2.075,1.641,4.088,2.466,6.138,1.765,4.352,3.871,8.9,4.012,13.659a9.162,9.162,0,0,0,.934,1.83c.076.108-.073.258-.172.185a28.743,28.743,0,0,0-4.961-2.4,39.822,39.822,0,0,1-5.082-3.007,61.126,61.126,0,0,0-5.481-3.019.527.527,0,0,0,.217.383,82.2,82.2,0,0,0,7.331,5.269l.008.007a27.757,27.757,0,0,0,8.014,4.7c3.383,1.2,6.835,2.192,10.207,3.429q2.933,1.078,5.784,2.353.427.074.868.171a5.355,5.355,0,0,1,2.947,1.345.136.136,0,0,1-.063.225,64.384,64.384,0,0,1-11.441,1.169,49.332,49.332,0,0,1-5.663-.593c-2.078-.28-4.165-.532-6.254-.833a48.763,48.763,0,0,1-6.216-1.205c-1.853-.527-3.643-1.232-5.451-1.886-.743-.267-1.484-.528-2.24-.79a.632.632,0,0,0,.32.55M235.8,206.372q.258-4.781.464-9.564c.654-14.987,2.62-29.872,4.408-44.757a.137.137,0,0,1,.273,0c.323,6.789-.694,13.515-1.287,20.263.868,7.153.427,14.419-.031,21.591q-.365,5.837-.621,11.684c-.162,3.575-.4,7.158-.361,10.735.065,5.153.786,10.414,3.371,14.951a.13.13,0,0,1-.205.154c-4.338-4.1-5.762-10.038-6.105-15.815a81.2,81.2,0,0,1,.094-9.242m-2.3,11.118a53.621,53.621,0,0,0,.2-6.629c0-.164.258-.164.267.007.356,7.359,1.558,15.565-3.348,21.791-.093.114-.242,0-.217-.122.82-5.062,2.189-10.008,3.095-15.047" transform="translate(-169.528 -87.501)" fill="#7d4515"/>
              </g>
            </g>
          </g>
        </g>
        <g id="Group_129000" data-name="Group 129000" transform="translate(200.9 152.055)" opacity="0.6" style="mix-blend-mode: multiply;isolation: isolate">
          <g id="Group_128999" data-name="Group 128999">
            <g id="Group_128998" data-name="Group 128998" clip-path="url(#clip-path-30)">
              <path id="Path_113946" data-name="Path 113946" d="M195.971,210.13c3.479-.83,6.867-2.588,10.124-4.012,2.489-1.085,5.11-2.694,6.5-5.09a6.254,6.254,0,0,0,.669-1.687,14.393,14.393,0,0,0,1.184-3.335,49.961,49.961,0,0,0,.989-10.548c.124-6.665.989-13.275,1.586-19.905.532-5.921,1.008-11.931.949-17.913a33.318,33.318,0,0,0-5.5-7.869,52.986,52.986,0,0,0-10.252-9.069,15.964,15.964,0,0,0-2.734-2.163c-.856-.588-1.725-1.164-2.6-1.706a12.045,12.045,0,0,0-1.547-.179c1.615-.732,4.112,1.121,5.309,1.929a68.417,68.417,0,0,1,7,5.092c2.423,2.143,4.709,4.458,7.014,6.731a28,28,0,0,1,5.69,7.158,7.556,7.556,0,0,1,.931,4.855c-.176.782-.459,1.542-.623,2.338a19.182,19.182,0,0,0-.267,2.6c-.29,4.325-.594,8.634-1.215,12.924-.505,3.414-.745,6.832-1.09,10.27-.146,1.5-.3,3-.325,4.509a14.8,14.8,0,0,0,.028,1.732c-.252,2.482-.4,4.981-.742,7.461a23.5,23.5,0,0,1-2.442,8.342,12.923,12.923,0,0,1-7.18,6.024c-3.342,1.128-6.9,1.268-10.348,1.946a33.268,33.268,0,0,0-5.191,1.363,8.16,8.16,0,0,0-2.194,1.066,15.473,15.473,0,0,0-1.194,1.118.385.385,0,0,1,.088-.434c2.083-2.05,4.588-2.88,7.379-3.545" transform="translate(-188.473 -126.485)" fill="#7d4515"/>
            </g>
          </g>
        </g>
        <g id="Group_129003" data-name="Group 129003" transform="translate(226.813 122.36)" opacity="0.3" style="mix-blend-mode: screen;isolation: isolate">
          <g id="Group_129002" data-name="Group 129002">
            <g id="Group_129001" data-name="Group 129001" clip-path="url(#clip-path-31)">
              <path id="Path_113947" data-name="Path 113947" d="M204.373,108.631c1.023,1.553,2.222,2.974,3.2,4.557a17.225,17.225,0,0,1,2.146,5.372c.482,2.176.5,4.285,1.224,6.413a8.995,8.995,0,0,1,.551,2.4c.06,1.182-.656,2.181-.484,3.376.028.247-.293.1-.325-.058a7.134,7.134,0,0,1-.06-2.3,6.6,6.6,0,0,0-.431-3.365,26.833,26.833,0,0,1-1.422-5.734,19.565,19.565,0,0,0-1.851-5.953c-.811-1.619-1.931-3.058-2.78-4.658-.088-.171.156-.161.23-.053" transform="translate(-204.123 -108.552)" fill="#eaa772"/>
            </g>
          </g>
        </g>
        <g id="Group_129006" data-name="Group 129006" transform="translate(208.811 145.537)" opacity="0.3" style="mix-blend-mode: screen;isolation: isolate">
          <g id="Group_129005" data-name="Group 129005">
            <g id="Group_129004" data-name="Group 129004" clip-path="url(#clip-path-32)">
              <path id="Path_113948" data-name="Path 113948" d="M193.4,122.567c.666.273.979.863,1.436,1.4a12.8,12.8,0,0,0,2.812,2.444c2.133,1.384,4.34,2.6,6.36,4.168,1.861,1.434,3.535,3.125,5.324,4.661a36.662,36.662,0,0,1,5.325,5.925c.184.237-.111.374-.293.194-.838-.828-1.609-1.722-2.441-2.56-.909-.924-1.974-1.676-2.885-2.61a38.818,38.818,0,0,0-5.7-5.17c-1.954-1.353-4.11-2.356-6.08-3.671a9.609,9.609,0,0,1-2.232-1.974c-.581-.72-.939-2.025-1.684-2.572-.108-.079-.139-.325.061-.238" transform="translate(-193.251 -122.549)" fill="#eaa772"/>
            </g>
          </g>
        </g>
        <g id="Group_129009" data-name="Group 129009" transform="translate(237.585 177.092)" opacity="0.3" style="mix-blend-mode: screen;isolation: isolate">
          <g id="Group_129008" data-name="Group 129008">
            <g id="Group_129007" data-name="Group 129007" clip-path="url(#clip-path-33)">
              <path id="Path_113949" data-name="Path 113949" d="M211.681,141.7c-.007-.2.321-.028.334.106a61.838,61.838,0,0,1,.159,13.431c-.44,4.535-.959,9.073-1.338,13.62-.013.132-.207.008-.209-.081.152-9.021,1.3-18.049,1.053-27.075" transform="translate(-210.628 -141.605)" fill="#eaa772"/>
            </g>
          </g>
        </g>
        <g id="Group_129012" data-name="Group 129012" transform="translate(265.884 129.227)" opacity="0.3" style="mix-blend-mode: screen;isolation: isolate">
          <g id="Group_129011" data-name="Group 129011">
            <g id="Group_129010" data-name="Group 129010" clip-path="url(#clip-path-34)">
              <path id="Path_113950" data-name="Path 113950" d="M227.728,130.621a31.612,31.612,0,0,0,2.484-4.391c.636-1.59,1.114-3.237,1.654-4.855,1.047-3.093,2.871-5.781,4.4-8.654.03-.06.119.015.1.068a30.878,30.878,0,0,1-2.133,4.554,17.839,17.839,0,0,0-2.017,4.269c-1.078,3.37-1.691,6.577-4.279,9.18-.075.079-.262-.081-.205-.171" transform="translate(-227.718 -112.699)" fill="#eaa772"/>
            </g>
          </g>
        </g>
        <g id="Group_129015" data-name="Group 129015" transform="translate(260.029 118.167)" opacity="0.3" style="mix-blend-mode: screen;isolation: isolate">
          <g id="Group_129014" data-name="Group 129014">
            <g id="Group_129013" data-name="Group 129013" clip-path="url(#clip-path-35)">
              <path id="Path_113951" data-name="Path 113951" d="M224.2,113.294c1.851-2.585,4.362-4.612,6.14-7.256.045-.066.187.06.149.128-1.575,2.82-3.976,4.938-6.115,7.3-.08.083-.235-.081-.174-.169" transform="translate(-224.182 -106.02)" fill="#eaa772"/>
            </g>
          </g>
        </g>
        <g id="Group_129018" data-name="Group 129018" transform="translate(237.277 109.181)" opacity="0.3" style="mix-blend-mode: screen;isolation: isolate">
          <g id="Group_129017" data-name="Group 129017">
            <g id="Group_129016" data-name="Group 129016" clip-path="url(#clip-path-36)">
              <path id="Path_113952" data-name="Path 113952" d="M210.606,100.669c2.182,6.137,2.659,12.659,2.833,19.124,0,.126-.192.007-.2-.088a101.472,101.472,0,0,0-2.8-19.048c-.03-.109.129-.063.161.012" transform="translate(-210.442 -100.593)" fill="#eaa772"/>
            </g>
          </g>
        </g>
        <g id="Group_129021" data-name="Group 129021" transform="translate(245.222 173.998)" opacity="0.3" style="mix-blend-mode: screen;isolation: isolate">
          <g id="Group_129020" data-name="Group 129020">
            <g id="Group_129019" data-name="Group 129019" clip-path="url(#clip-path-37)">
              <path id="Path_113953" data-name="Path 113953" d="M215.272,151.864c.118-4.034.811-8.039,1.061-12.066.013-.139.207-.008.207.086.053,4.131-.185,8.258-.371,12.379a55.047,55.047,0,0,0,.272,6c.134,2.009.137,4.014.166,6.029.05,4.057.015,8.066.459,12.1.409,3.676,1.32,7.483,1.191,11.2,0,.167-.242,0-.252-.109a107.938,107.938,0,0,0-1.835-12.2,77.05,77.05,0,0,1-.694-11.475c-.076-3.964-.323-7.98-.2-11.942" transform="translate(-215.24 -139.737)" fill="#eaa772"/>
            </g>
          </g>
        </g>
        <g id="Group_129024" data-name="Group 129024" transform="translate(287.682 121.295)" opacity="0.3" style="mix-blend-mode: screen;isolation: isolate">
          <g id="Group_129023" data-name="Group 129023">
            <g id="Group_129022" data-name="Group 129022" clip-path="url(#clip-path-38)">
              <path id="Path_113954" data-name="Path 113954" d="M240.889,116.694c.748-1.571,1.517-3.14,2.4-4.643.813-1.363,2.136-2.61,2.678-4.1.031-.1.2.031.171.119a17.694,17.694,0,0,1-2.394,4.3c-.926,1.469-1.687,3.042-2.676,4.479-.061.083-.224-.073-.182-.152" transform="translate(-240.882 -107.909)" fill="#eaa772"/>
            </g>
          </g>
        </g>
        <g id="Group_129027" data-name="Group 129027" transform="translate(226.736 209.694)" opacity="0.3" style="mix-blend-mode: screen;isolation: isolate">
          <g id="Group_129026" data-name="Group 129026">
            <g id="Group_129025" data-name="Group 129025" clip-path="url(#clip-path-39)">
              <path id="Path_113955" data-name="Path 113955" d="M204.084,180.769c.646-1.24,1.426-2.4,1.987-3.691.742-1.686.815-3.712,1.181-5.514.353-1.739.225-3.537.45-5.291a34.523,34.523,0,0,0,.561-4.91c-.007-.151.225-.026.237.078a18.79,18.79,0,0,1-.169,4.632c-.2,1.921-.03,3.878-.4,5.786a24.958,24.958,0,0,1-1.194,4.678,26.7,26.7,0,0,1-2.432,4.386c-.073.114-.268-.051-.219-.154" transform="translate(-204.076 -161.293)" fill="#eaa772"/>
            </g>
          </g>
        </g>
      </g>
    </g>
  </g>
</svg>
